<?xml version="1.0" encoding="UTF-8"?>
<svg width="484px" height="384px" viewBox="0 0 484 384" version="1.1" xmlns="http://www.w3.org/2000/svg" xmlns:xlink="http://www.w3.org/1999/xlink">
    <!-- Generator: Sketch 46.2 (44496) - http://www.bohemiancoding.com/sketch -->
    <title>Icon</title>
    <desc>Created with Sketch.</desc>
    <defs>
        <rect id="path-1" x="0" y="0" width="500" height="500"></rect>
    </defs>
    <g id="Page-1" stroke="none" stroke-width="1" fill="none" fill-rule="evenodd">
        <g id="Icon" transform="translate(-8.000000, -57.000000)">
            <mask id="mask-2" fill="white">
                <use xlink:href="#path-1"></use>
            </mask>
            <use id="Rectangle-3" fill-opacity="0" fill="#D8D8D8" xlink:href="#path-1"></use>
            <g id="Group" mask="url(#mask-2)">
                <g transform="translate(8.000000, 57.000000)">
                    <g id="Blue-Gear" transform="translate(242.000000, 0.000000)">
                        <path d="M212.179619,56.5647483 C212.179619,56.5647483 187.905743,61.7649583 176.485883,65.9982719 L138.964703,21.9230642 L103.69861,41.936589 L123.722912,95.8661558 C114.239678,103.613217 105.476737,112.251499 97.6330006,121.646782 L42.6926508,101.862045 L22.3184402,136.503855 L67.1494418,173.399017 C62.8468979,184.607399 59.6395401,196.333841 57.6233712,208.460898 L1.83607207e-06,218.353348 L1.83607207e-06,258.380402 L57.584452,268.310773 C59.6393956,280.399921 62.8468979,292.126292 67.1494418,303.334717 L22.3184402,340.229923 L42.6926508,374.871565 L107.312327,350.19539 C113.29769,350.19539 241.930735,350.195396 241.930735,350.195396 L241.930735,0 L222.288989,0 L212.179619,56.5647483 L212.179619,56.5647483 L212.179619,56.5647483 L212.179619,56.5647483 Z M101.869092,343.182814 C103.89317,345.790818 107.25235,350.16997 107.25235,350.16997 C107.25235,350.16997 196.395801,350.169963 241.874024,350.169963 L241.874024,331.311276 L241.954125,331.311276 L241.954125,10.3522517 L228.56991,10.3522517 L220.028306,65.609315 C203.804905,67.5762653 188.264016,71.7055374 173.713623,77.6945988 L137.581183,31.455125 L113.354658,45.1356919 L135.159445,99.5628574 C122.64301,108.91082 111.436599,119.863592 101.857851,132.109161 L46.3100334,112.923053 L32.7883811,135.076327 L78.815202,171.233007 C72.7227319,185.654679 68.5551736,201.05958 66.6272739,217.138535 L9.46244303,226.268982 L9.46244303,251.511388 L66.8901983,260.221801 C68.9190951,275.544649 72.9844978,290.238591 78.8109885,304.033082 L32.7883811,341.242751 L46.3100334,365.202029 L101.869092,343.182814 L101.869092,343.182814 L101.869092,343.182814 L101.869092,343.182814 Z" id="path4050" fill="#65C2FB" transform="translate(120.977063, 187.435782) scale(-1, 1) translate(-120.977063, -187.435782) "></path>
                    </g>
                    <g id="Green-Gear" transform="translate(121.000000, 187.500000) scale(-1, 1) translate(-121.000000, -187.500000) ">
                        <path d="M212.179619,56.5647483 C212.179619,56.5647483 187.905743,61.7649583 176.485883,65.9982719 L138.964703,21.9230642 L103.69861,41.936589 L123.722912,95.8661558 C114.239678,103.613217 105.476737,112.251499 97.6330006,121.646782 L42.6926508,101.862045 L22.3184402,136.503855 L67.1494418,173.399017 C62.8468979,184.607399 59.6395401,196.333841 57.6233712,208.460898 L1.83607202e-06,218.353348 L1.83607202e-06,258.380402 L57.584452,268.310773 C59.6393956,280.399921 62.8468979,292.126292 67.1494418,303.334717 L22.3184402,340.229923 L42.6926508,374.871565 L107.312327,350.19539 C113.29769,350.19539 241.930735,350.195396 241.930735,350.195396 L241.930735,0 L222.288989,0 L212.179619,56.5647483 L212.179619,56.5647483 L212.179619,56.5647483 L212.179619,56.5647483 Z M101.869092,343.182814 C103.89317,345.790818 107.25235,350.16997 107.25235,350.16997 C107.25235,350.16997 196.395801,350.169963 241.874024,350.169963 L241.874024,331.311276 L241.954125,331.311276 L241.954125,10.3522517 L228.56991,10.3522517 L220.028306,65.609315 C203.804905,67.5762653 188.264016,71.7055374 173.713623,77.6945988 L137.581183,31.455125 L113.354658,45.1356919 L135.159445,99.5628574 C122.64301,108.91082 111.436599,119.863592 101.857851,132.109161 L46.3100334,112.923053 L32.7883811,135.076327 L78.815202,171.233007 C72.7227319,185.654679 68.5551736,201.05958 66.6272739,217.138535 L9.46244303,226.268982 L9.46244303,251.511388 L66.8901983,260.221801 C68.9190951,275.544649 72.9844978,290.238591 78.8109885,304.033082 L32.7883811,341.242751 L46.3100334,365.202029 L101.869092,343.182814 L101.869092,343.182814 L101.869092,343.182814 L101.869092,343.182814 Z" id="path4050" fill="#9FD34B" transform="translate(120.977063, 187.435782) scale(-1, 1) translate(-120.977063, -187.435782) "></path>
                    </g>
                    <g id="Blue-Student" transform="translate(325.000000, 250.500000) rotate(62.000000) translate(-325.000000, -250.500000) translate(229.000000, 144.000000)">
                        <path d="M69.2750665,166.193711 C63.0670329,134.12448 66.2677253,124.895418 61.0078994,115.458411 C49.1985345,94.270437 -9.66338121e-13,81.1859597 -9.66338121e-13,81.1859597 C-9.66338121e-13,81.1859597 49.926278,90.126003 65.0863253,81.1859594 C92.2850271,65.1465911 86.5310168,8.64676882 86.5310168,8.64676882 C86.5310168,8.64676882 93.4779033,68.8726097 109.377573,89.6112032 C125.982382,111.269537 191.89757,127.001557 191.89757,127.001557 C191.89757,127.001557 117.534425,109.129139 95.9487872,124.71407 C74.3631491,140.299 81.7033953,212.953105 81.7033953,212.953105 C81.7033953,212.953105 75.4831,198.262942 69.2750665,166.193711 L69.2750665,166.193711 L69.2750665,166.193711 L69.2750665,166.193711 Z" id="Shape" fill="#65C2FB"></path>
                        <ellipse id="Oval" fill="#65C2FB" cx="59.7071663" cy="62.8442239" rx="15.6157204" ry="15.6162159"></ellipse>
                        <path d="M32.7753976,20.2458107 L6.10701042,59.9643339 L22.8193832,54.1787995 L25.5524979,61.3326686 L25.1655302,71.3084566 L32.775398,68.2485956 L27.5411253,60.6566259 L24.7707542,53.2620572 L31.9620322,48.3492209 L39.3589559,59.9643322 C39.3589559,59.9643322 41.2920962,51.7620905 48.7568105,46.9551269 C55.9176961,42.3438164 63.3485671,43.4165044 63.3485671,43.4165044 C63.3485671,43.4165044 62.8725002,38.5904302 63.3485671,34.2535271 C63.6161537,31.8158496 65.1640589,27.2557281 65.1640589,27.2557281 L59.0391949,25.1393809 L75.2053314,0.103337153 L32.7753976,20.2458107 L32.7753976,20.2458107 L32.7753976,20.2458107 L32.7753976,20.2458107 Z" id="Path-2" fill="#65C2FB"></path>
                    </g>
                    <g id="Green-Student" transform="translate(229.000000, 230.500000) rotate(27.000000) translate(-229.000000, -230.500000) translate(133.000000, 124.000000)">
                        <path d="M69.2750665,166.193711 C63.0670329,134.12448 66.2677253,124.895418 61.0078994,115.458411 C49.1985345,94.270437 0,81.1859597 0,81.1859597 C0,81.1859597 49.926278,90.126003 65.0863253,81.1859594 C92.2850271,65.1465911 86.5310168,8.64676882 86.5310168,8.64676882 C86.5310168,8.64676882 93.4779033,68.8726097 109.377573,89.6112032 C125.982382,111.269537 191.89757,127.001557 191.89757,127.001557 C191.89757,127.001557 117.534425,109.129139 95.9487872,124.71407 C74.3631491,140.299 81.7033953,212.953105 81.7033953,212.953105 C81.7033953,212.953105 75.4831,198.262942 69.2750665,166.193711 L69.2750665,166.193711 L69.2750665,166.193711 L69.2750665,166.193711 Z" id="Blue-Student" fill="#9FD34B"></path>
                        <ellipse id="Oval" fill="#9FD34B" cx="59.7071663" cy="62.8442239" rx="15.6157204" ry="15.6162159"></ellipse>
                        <path d="M32.7753976,20.2458107 L6.10701042,59.9643339 L22.8193832,54.1787995 L25.5524979,61.3326686 L25.1655302,71.3084566 L32.775398,68.2485956 L27.5411253,60.6566259 L24.7707542,53.2620572 L31.9620322,48.3492209 L39.3589559,59.9643322 C39.3589559,59.9643322 41.2920962,51.7620905 48.7568105,46.9551269 C55.9176961,42.3438164 63.3485671,43.4165044 63.3485671,43.4165044 C63.3485671,43.4165044 62.8725002,38.5904302 63.3485671,34.2535271 C63.6161537,31.8158496 65.1640589,27.2557281 65.1640589,27.2557281 L59.0391949,25.1393809 L75.2053314,0.103337153 L32.7753976,20.2458107 L32.7753976,20.2458107 L32.7753976,20.2458107 L32.7753976,20.2458107 Z" id="Path-2" fill="#9FD34B"></path>
                    </g>
                    <g id="Blue-Student" transform="translate(55.000000, 171.000000)">
                        <path d="M61.0078994,115.458411 C49.1985345,94.270437 0,81.1859597 0,81.1859597 C0,81.1859597 49.926278,90.126003 65.0863253,81.1859594 C92.2850271,65.1465911 86.5310168,8.64676882 86.5310168,8.64676882 C86.5310168,8.64676882 93.4779033,68.8726097 109.377573,89.6112032 C125.982382,111.269537 191.89757,127.001557 191.89757,127.001557 C191.89757,127.001557 117.534425,109.129139 95.9487872,124.71407 C74.3631491,140.299 81.7033953,212.953105 81.7033953,212.953105 C81.7033953,212.953105 75.4831,198.262942 69.2750665,166.193711 C63.0670329,134.12448 66.2677253,124.895418 61.0078994,115.458411 L61.0078994,115.458411 L61.0078994,115.458411 Z" id="Shape" fill="#65C2FB"></path>
                        <ellipse id="Oval" fill="#65C2FB" cx="59.7071663" cy="62.8442239" rx="15.6157204" ry="15.6162159"></ellipse>
                        <path d="M32.7753976,20.2458107 L6.10701042,59.9643339 L22.8193832,54.1787995 L25.5524979,61.3326686 L25.1655302,71.3084566 L32.775398,68.2485956 L27.5411253,60.6566259 L24.7707542,53.2620572 L31.9620322,48.3492209 L39.3589559,59.9643322 C39.3589559,59.9643322 41.2920962,51.7620905 48.7568105,46.9551269 C55.9176961,42.3438164 63.3485671,43.4165044 63.3485671,43.4165044 C63.3485671,43.4165044 62.8725002,38.5904302 63.3485671,34.2535271 C63.6161537,31.8158496 65.1640589,27.2557281 65.1640589,27.2557281 L59.0391949,25.1393809 L75.2053314,0.103337153 L32.7753976,20.2458107 L32.7753976,20.2458107 L32.7753976,20.2458107 L32.7753976,20.2458107 Z" id="Path-2" fill="#65C2FB"></path>
                    </g>
                </g>
            </g>
        </g>
    </g>
</svg>