<?xml version="1.0" encoding="UTF-8"?>
<svg width="1409px" height="373px" viewBox="0 0 1409 373" version="1.1" xmlns="http://www.w3.org/2000/svg" xmlns:xlink="http://www.w3.org/1999/xlink">
    <!-- Generator: Sketch 46.2 (44496) - http://www.bohemiancoding.com/sketch -->
    <title>S3MM Logo White</title>
    <desc>Created with Sketch.</desc>
    <defs>
        <rect id="path-1" x="0" y="0" width="373" height="373" rx="75"></rect>
    </defs>
    <g id="Page-1" stroke="none" stroke-width="1" fill="none" fill-rule="evenodd">
        <g id="S3MM-Logo-White">
            <path d="M444.808,151.502 C438.822,145.434 431.688,142.4 423.324,142.4 L422.094,142.4 C413.812,142.4 406.678,145.352 400.774,151.256 C394.952,157.078 392,164.212 392,172.494 L392,224.4 L409.384,224.4 L409.384,172.494 C409.384,168.968 410.614,166.016 413.074,163.556 C415.616,161.014 418.568,159.784 422.094,159.784 L423.324,159.784 C426.85,159.784 429.802,161.014 432.262,163.556 C434.804,166.016 436.034,168.968 436.034,172.494 L436.034,224.4 L453.582,224.4 L453.582,172.494 C453.582,168.968 454.812,166.016 457.272,163.556 C459.814,161.014 462.766,159.784 466.292,159.784 L467.604,159.784 C471.13,159.784 474.082,161.014 476.542,163.556 C479.084,166.016 480.314,168.968 480.314,172.494 L480.314,224.4 L497.698,224.4 L497.698,172.494 C497.698,164.13 494.746,156.996 488.924,151.174 C483.102,145.352 475.968,142.4 467.604,142.4 L466.292,142.4 C458.01,142.4 450.794,145.434 444.808,151.502 Z M544.11,183.4 L544.274,174.79 L543.946,174.79 L543.946,174.544 L538.862,174.544 C537.796,174.626 537.14,174.626 536.976,174.626 C534.188,174.626 532.056,174.544 530.58,174.38 C525.25,173.806 522.544,171.756 522.544,168.394 C522.544,167.164 522.872,165.934 523.61,164.704 C525.496,161.506 528.694,159.866 533.204,159.866 L555.262,159.866 C560.51,159.866 565.102,162.9 567.07,167.738 L583.142,160.932 C580.764,155.274 577.074,150.846 571.99,147.484 C566.906,144.122 561.33,142.4 555.262,142.4 L533.204,142.4 C527.792,142.4 522.708,143.794 517.952,146.582 C510.08,151.174 505.078,159.456 505.078,168.394 C505.078,174.134 506.964,179.136 510.736,183.4 C506.964,187.582 505.078,192.584 505.078,198.406 C505.078,202.834 506.226,207.016 508.604,210.952 C511.064,215.134 514.59,218.496 519.1,220.874 C523.446,223.252 528.202,224.4 533.204,224.4 L555.262,224.4 C561.33,224.4 566.906,222.678 571.99,219.316 C577.074,215.954 580.764,211.526 583.142,205.868 L567.07,199.062 C565.102,203.9 560.51,206.934 555.262,206.934 L533.204,206.934 C530.826,206.934 528.694,206.36 526.726,205.212 C523.938,203.572 522.544,201.276 522.544,198.406 C522.544,195.618 524.266,193.814 527.628,192.912 C529.35,192.42 532.138,192.174 535.992,192.174 L541.896,192.256 L543.946,192.256 L543.946,192.01 L544.274,192.01 L544.11,183.4 Z M605.938,159.866 L640.132,159.866 C643.658,159.866 646.61,161.096 649.07,163.638 C651.53,166.098 652.76,169.05 652.76,172.576 L652.76,194.388 C652.76,197.914 651.53,200.866 649.07,203.408 C646.61,205.868 643.658,207.098 640.132,207.098 L605.938,207.098 L605.938,159.866 Z M605.938,142.4 L588.636,142.4 L588.636,224.318 L602.658,224.318 L602.658,224.4 L640.132,224.4 C648.414,224.4 655.466,221.448 661.288,215.626 C667.11,209.804 670.062,202.67 670.062,194.388 L670.062,172.576 C670.062,164.294 667.11,157.16 661.288,151.338 C655.466,145.516 648.414,142.564 640.132,142.564 L605.938,142.564 L605.938,142.4 Z M693.104,224.4 L693.104,142.4 L675.802,142.4 L675.802,224.4 L693.104,224.4 Z M711.718,224.4 L711.718,198.652 L759.114,198.652 L759.114,224.4 L776.416,224.4 L776.416,172.494 C776.416,164.13 773.464,156.996 767.642,151.174 C761.82,145.352 754.686,142.4 746.322,142.4 L724.428,142.4 C716.146,142.4 709.012,145.352 703.108,151.256 C697.286,157.078 694.334,164.212 694.334,172.494 L694.334,224.4 L711.718,224.4 Z M711.718,181.268 L711.718,172.494 C711.718,168.968 712.948,166.016 715.408,163.556 C717.95,161.014 720.902,159.784 724.428,159.784 L746.322,159.784 C749.848,159.784 752.8,161.014 755.342,163.556 C757.884,166.016 759.114,168.968 759.114,172.494 L759.114,181.268 L711.718,181.268 Z M860.794,151.502 C854.808,145.434 847.674,142.4 839.31,142.4 L838.08,142.4 C829.798,142.4 822.664,145.352 816.76,151.256 C810.938,157.078 807.986,164.212 807.986,172.494 L807.986,224.4 L825.37,224.4 L825.37,172.494 C825.37,168.968 826.6,166.016 829.06,163.556 C831.602,161.014 834.554,159.784 838.08,159.784 L839.31,159.784 C842.836,159.784 845.788,161.014 848.248,163.556 C850.79,166.016 852.02,168.968 852.02,172.494 L852.02,224.4 L869.568,224.4 L869.568,172.494 C869.568,168.968 870.798,166.016 873.258,163.556 C875.8,161.014 878.752,159.784 882.278,159.784 L883.59,159.784 C887.116,159.784 890.068,161.014 892.528,163.556 C895.07,166.016 896.3,168.968 896.3,172.494 L896.3,224.4 L913.684,224.4 L913.684,172.494 C913.684,164.13 910.732,156.996 904.91,151.174 C899.088,145.352 891.954,142.4 883.59,142.4 L882.278,142.4 C873.996,142.4 866.78,145.434 860.794,151.502 Z M938.448,224.4 L938.448,198.652 L985.844,198.652 L985.844,224.4 L1003.146,224.4 L1003.146,172.494 C1003.146,164.13 1000.194,156.996 994.372,151.174 C988.55,145.352 981.416,142.4 973.052,142.4 L951.158,142.4 C942.876,142.4 935.742,145.352 929.838,151.256 C924.016,157.078 921.064,164.212 921.064,172.494 L921.064,224.4 L938.448,224.4 Z M938.448,181.268 L938.448,172.494 C938.448,168.968 939.678,166.016 942.138,163.556 C944.68,161.014 947.632,159.784 951.158,159.784 L973.052,159.784 C976.578,159.784 979.53,161.014 982.072,163.556 C984.614,166.016 985.844,168.968 985.844,172.494 L985.844,181.268 L938.448,181.268 Z M1047.918,183.4 L1048.082,174.79 L1047.754,174.79 L1047.754,174.544 L1042.67,174.544 C1041.604,174.626 1040.948,174.626 1040.784,174.626 C1037.996,174.626 1035.864,174.544 1034.388,174.38 C1029.058,173.806 1026.352,171.756 1026.352,168.394 C1026.352,167.164 1026.68,165.934 1027.418,164.704 C1029.304,161.506 1032.502,159.866 1037.012,159.866 L1059.07,159.866 C1064.318,159.866 1068.91,162.9 1070.878,167.738 L1086.95,160.932 C1084.572,155.274 1080.882,150.846 1075.798,147.484 C1070.714,144.122 1065.138,142.4 1059.07,142.4 L1037.012,142.4 C1031.6,142.4 1026.516,143.794 1021.76,146.582 C1013.888,151.174 1008.886,159.456 1008.886,168.394 C1008.886,174.134 1010.772,179.136 1014.544,183.4 C1010.772,187.582 1008.886,192.584 1008.886,198.406 C1008.886,202.834 1010.034,207.016 1012.412,210.952 C1014.872,215.134 1018.398,218.496 1022.908,220.874 C1027.254,223.252 1032.01,224.4 1037.012,224.4 L1059.07,224.4 C1065.138,224.4 1070.714,222.678 1075.798,219.316 C1080.882,215.954 1084.572,211.526 1086.95,205.868 L1070.878,199.062 C1068.91,203.9 1064.318,206.934 1059.07,206.934 L1037.012,206.934 C1034.634,206.934 1032.502,206.36 1030.534,205.212 C1027.746,203.572 1026.352,201.276 1026.352,198.406 C1026.352,195.618 1028.074,193.814 1031.436,192.912 C1033.158,192.42 1035.946,192.174 1039.8,192.174 L1045.704,192.256 L1047.754,192.256 L1047.754,192.01 L1048.082,192.01 L1047.918,183.4 Z M1112.206,168.476 C1112.206,167.246 1112.534,166.016 1113.272,164.786 C1115.158,161.588 1118.356,159.948 1122.866,159.948 L1145.088,159.948 C1150.336,159.948 1154.928,162.982 1156.896,167.82 L1172.968,160.932 C1170.59,155.274 1166.9,150.846 1161.816,147.484 C1156.732,144.122 1151.156,142.4 1145.088,142.4 L1122.866,142.4 C1117.372,142.4 1112.288,143.794 1107.614,146.582 C1099.742,151.256 1094.658,159.538 1094.658,168.476 C1094.658,173.232 1095.97,177.496 1098.594,181.268 C1101.956,186.27 1106.958,189.468 1113.6,191.026 C1117.782,192.01 1123.932,192.42 1132.05,192.174 L1134.018,192.174 L1135.822,192.092 C1140.168,191.846 1144.022,191.928 1147.384,192.256 C1153.206,192.83 1156.158,194.798 1156.158,198.324 C1156.158,199.554 1155.83,200.784 1155.092,202.014 C1153.206,205.212 1150.008,206.852 1145.498,206.852 L1120.406,206.852 C1115.158,206.852 1110.566,203.818 1108.516,198.98 L1092.444,205.868 C1094.822,211.444 1098.512,215.954 1103.596,219.316 C1108.762,222.678 1114.338,224.4 1120.406,224.4 L1145.498,224.4 C1150.91,224.4 1155.994,223.006 1160.75,220.218 C1168.622,215.626 1173.706,207.262 1173.706,198.324 C1173.706,193.568 1172.394,189.304 1169.77,185.45 C1166.326,180.448 1161.16,177.25 1154.272,175.692 C1150.008,174.708 1143.694,174.298 1135.412,174.544 C1135.002,174.544 1134.674,174.544 1134.264,174.626 L1131.64,174.626 C1124.834,174.626 1121.144,174.626 1120.57,174.544 C1114.994,173.97 1112.206,171.92 1112.206,168.476 Z M1241.356,142.4 L1179.364,142.4 L1179.364,159.62 L1201.75,159.62 L1201.75,224.4 L1218.97,224.4 L1218.97,159.62 L1241.356,159.62 L1241.356,142.4 Z M1263.004,142.4 L1245.702,142.4 L1245.702,224.4 L1263.004,224.4 L1263.004,199.554 L1290.146,199.554 C1293.672,199.554 1296.624,200.784 1299.084,203.326 C1301.544,205.786 1302.774,208.738 1302.774,212.264 L1302.774,224.318 L1320.158,224.318 L1320.158,212.264 C1320.158,204.966 1317.78,198.57 1313.106,192.912 C1318.108,188.566 1320.732,183.072 1321.142,176.512 C1321.224,174.708 1321.306,172.658 1321.306,170.28 C1321.306,167.41 1321.142,165.032 1320.814,163.064 C1319.748,156.258 1316.222,150.928 1310.4,147.074 C1305.89,144.04 1300.56,142.564 1294.246,142.564 L1263.004,142.564 L1263.004,142.4 Z M1263.004,159.866 L1294.246,159.866 C1299.494,159.866 1302.61,161.67 1303.594,165.36 C1303.84,166.426 1304.004,168.066 1304.004,170.28 C1304.004,172.904 1303.922,174.79 1303.676,175.938 C1302.856,180.12 1299.74,182.17 1294.246,182.17 L1263.004,182.17 L1263.004,159.866 Z M1356.648,142.4 C1348.366,142.4 1341.232,145.352 1335.41,151.174 C1329.588,156.996 1326.636,164.13 1326.636,172.412 L1326.636,194.388 C1326.636,202.67 1329.588,209.804 1335.41,215.626 C1341.232,221.448 1348.366,224.4 1356.648,224.4 L1378.624,224.4 C1386.906,224.4 1394.04,221.448 1399.862,215.626 C1405.684,209.804 1408.636,202.67 1408.636,194.388 L1408.636,172.412 C1408.636,164.13 1405.684,156.996 1399.862,151.174 C1394.04,145.352 1386.906,142.4 1378.624,142.4 L1356.648,142.4 Z M1378.624,159.784 C1382.068,159.784 1385.02,161.014 1387.48,163.556 C1390.022,166.016 1391.252,168.968 1391.252,172.412 L1391.252,194.388 C1391.252,197.832 1390.022,200.784 1387.48,203.326 C1385.02,205.786 1382.068,207.016 1378.624,207.016 L1356.648,207.016 C1353.204,207.016 1350.252,205.786 1347.71,203.326 C1345.25,200.784 1344.02,197.832 1344.02,194.388 L1344.02,172.412 C1344.02,168.968 1345.25,166.016 1347.71,163.556 C1350.252,161.014 1353.204,159.784 1356.648,159.784 L1378.624,159.784 Z" id="media-maestro" fill="#FFFFFF"></path>
            <path d="M463.825,234.355 L451.9075,258.925 L451.9075,271 L449.23,271 L449.23,258.82 L437.3125,234.355 L440.2525,234.355 L450.595,255.5125 L460.885,234.355 L463.825,234.355 Z M483.1975,258.5575 C483.1975,267.167543 479.715035,271.4725 472.75,271.4725 C465.749965,271.4725 462.25,267.167543 462.25,258.5575 C462.25,249.912457 465.749965,245.59 472.75,245.59 C479.715035,245.59 483.1975,249.912457 483.1975,258.5575 Z M480.6775,258.5575 C480.6775,255.302484 480.170005,252.852508 479.155,251.2075 C477.894994,249.14249 475.760015,248.11 472.75,248.11 C469.704985,248.11 467.552506,249.14249 466.2925,251.2075 C465.312495,252.852508 464.8225,255.302484 464.8225,258.5575 C464.8225,261.777516 465.312495,264.209992 466.2925,265.855 C467.552506,267.92001 469.687485,268.9525 472.6975,268.9525 C475.742515,268.9525 477.894994,267.92001 479.155,265.855 C480.170005,264.209992 480.6775,261.777516 480.6775,258.5575 Z M508.2925,271 L505.7725,271 L505.7725,268.5325 C503.952491,270.387509 501.607514,271.315 498.7375,271.315 C492.052467,271.315 488.71,267.535038 488.71,259.975 L488.71,245.905 L491.23,245.905 L491.23,259.975 C491.23,262.880015 491.737495,265.032493 492.7525,266.4325 C493.942506,268.042508 495.937486,268.8475 498.7375,268.8475 C500.382508,268.8475 501.922493,268.322505 503.3575,267.2725 C504.967508,266.117494 505.7725,264.735008 505.7725,263.125 L505.7725,245.905 L508.2925,245.905 L508.2925,271 Z M529.765,246.535 L528.505,248.8975 C527.244994,248.372497 526.072505,248.11 524.9875,248.11 C523.132491,248.11 521.487507,248.713744 520.0525,249.92125 C518.617493,251.128756 517.9,252.589991 517.9,254.305 L517.9,271 L515.38,271 L515.38,245.905 L517.9,245.905 L517.9,248.845 C519.510008,246.674989 521.872484,245.59 524.9875,245.59 C526.737509,245.59 528.329993,245.904997 529.765,246.535 Z M567.7225,258.3475 C567.7225,266.992543 564.397533,271.315 557.7475,271.315 C554.632484,271.315 552.270008,270.33501 550.66,268.375 L550.66,282.55 L548.14,282.55 L548.14,245.905 L550.66,245.905 L550.66,248.5825 C552.340008,246.447489 554.702485,245.38 557.7475,245.38 C564.397533,245.38 567.7225,249.702457 567.7225,258.3475 Z M565.2025,258.3475 C565.2025,255.197484 564.765004,252.800008 563.89,251.155 C562.699994,248.984989 560.652515,247.9 557.7475,247.9 C555.78749,247.9 554.116257,248.494994 552.73375,249.685 C551.351243,250.875006 550.66,252.44999 550.66,254.41 L550.66,262.285 C550.66,264.21001 551.351243,265.767494 552.73375,266.9575 C554.116257,268.147506 555.78749,268.7425 557.7475,268.7425 C560.652515,268.7425 562.699994,267.675011 563.89,265.54 C564.765004,263.894992 565.2025,261.497516 565.2025,258.3475 Z M578.8,271 C575.439983,271 573.76,269.04002 573.76,265.12 L573.76,234.355 L576.28,234.355 L576.28,265.12 C576.28,267.360011 577.119992,268.48 578.8,268.48 L578.8,271 Z M602.74,270.7375 L600.43,271.42 L599.4325,268.9 C597.192489,270.650009 594.672514,271.525 591.8725,271.525 C589.317487,271.525 587.235008,270.895006 585.625,269.635 C583.874991,268.269993 583,266.362512 583,263.9125 C583,261.602488 583.857491,259.765007 585.5725,258.4 C587.147508,257.174994 589.107488,256.5625 591.4525,256.5625 L595.1275,256.5625 C597.15751,256.5625 598.557496,256.142504 599.3275,255.3025 L599.3275,252.8875 C599.3275,251.487493 598.680006,250.315005 597.385,249.37 C596.194994,248.529996 594.882507,248.11 593.4475,248.11 C589.737481,248.11 587.462504,249.492486 586.6225,252.2575 L584.2075,251.5225 C585.642507,247.56748 588.757476,245.59 593.5525,245.59 C595.687511,245.59 597.577492,246.237494 599.2225,247.5325 C600.972509,248.932507 601.8475,250.66499 601.8475,252.73 L601.8475,268.3225 L602.74,270.7375 Z M599.3275,265.6975 L599.3275,258.19 C598.347495,258.715003 597.157507,258.9775 595.7575,258.9775 L591.4525,258.9775 C589.807492,258.9775 588.442505,259.379996 587.3575,260.185 C586.167494,261.060004 585.5725,262.302492 585.5725,263.9125 C585.5725,265.557508 586.219994,266.852495 587.515,267.7975 C588.670006,268.602504 590.122491,269.005 591.8725,269.005 C594.707514,269.005 597.192489,267.902511 599.3275,265.6975 Z M627.5725,245.905 L615.8125,277.405 C614.517494,280.870017 612.242516,282.585 608.9875,282.55 L607.99,282.55 L607.99,280.03 L609.04,280.03 C611.10501,280.03 612.574996,278.857512 613.45,276.5125 L615.4975,271 L606.1525,245.905 L608.83,245.905 L616.8625,267.3775 L624.8425,245.905 L627.5725,245.905 Z M650.7775,257.035 L650.7775,259.135 L633.085,259.135 C633.190001,265.680033 636.059972,268.9525 641.695,268.9525 C644.565014,268.9525 646.717493,268.025009 648.1525,266.17 L650.1475,267.745 C648.22249,270.230012 645.405019,271.4725 641.695,271.4725 C634.204963,271.4725 630.46,267.167543 630.46,258.5575 C630.46,249.912457 634.029964,245.59 641.17,245.59 C644.425016,245.59 646.892492,246.727489 648.5725,249.0025 C650.042507,250.99751 650.7775,253.674983 650.7775,257.035 Z M648.205,256.615 C648.099999,250.944972 645.755023,248.11 641.17,248.11 C636.164975,248.11 633.487502,250.944972 633.1375,256.615 L648.205,256.615 Z M671.2,246.535 L669.94,248.8975 C668.679994,248.372497 667.507505,248.11 666.4225,248.11 C664.567491,248.11 662.922507,248.713744 661.4875,249.92125 C660.052493,251.128756 659.335,252.589991 659.335,254.305 L659.335,271 L656.815,271 L656.815,245.905 L659.335,245.905 L659.335,248.845 C660.945008,246.674989 663.307484,245.59 666.4225,245.59 C668.172509,245.59 669.764993,245.904997 671.2,246.535 Z M678.655,269.1625 C678.655,269.792503 678.427502,270.326248 677.9725,270.76375 C677.517498,271.201252 676.975003,271.42 676.345,271.42 C675.714997,271.42 675.181252,271.201252 674.74375,270.76375 C674.306248,270.326248 674.0875,269.792503 674.0875,269.1625 C674.0875,268.532497 674.306248,267.998752 674.74375,267.56125 C675.181252,267.123748 675.714997,266.905 676.345,266.905 C676.975003,266.905 677.517498,267.123748 677.9725,267.56125 C678.427502,267.998752 678.655,268.532497 678.655,269.1625 Z M724.0675,234.355 L712.15,258.925 L712.15,271 L709.4725,271 L709.4725,258.82 L697.555,234.355 L700.495,234.355 L710.8375,255.5125 L721.1275,234.355 L724.0675,234.355 Z M743.44,258.5575 C743.44,267.167543 739.957535,271.4725 732.9925,271.4725 C725.992465,271.4725 722.4925,267.167543 722.4925,258.5575 C722.4925,249.912457 725.992465,245.59 732.9925,245.59 C739.957535,245.59 743.44,249.912457 743.44,258.5575 Z M740.92,258.5575 C740.92,255.302484 740.412505,252.852508 739.3975,251.2075 C738.137494,249.14249 736.002515,248.11 732.9925,248.11 C729.947485,248.11 727.795006,249.14249 726.535,251.2075 C725.554995,252.852508 725.065,255.302484 725.065,258.5575 C725.065,261.777516 725.554995,264.209992 726.535,265.855 C727.795006,267.92001 729.929985,268.9525 732.94,268.9525 C735.985015,268.9525 738.137494,267.92001 739.3975,265.855 C740.412505,264.209992 740.92,261.777516 740.92,258.5575 Z M768.535,271 L766.015,271 L766.015,268.5325 C764.194991,270.387509 761.850014,271.315 758.98,271.315 C752.294967,271.315 748.9525,267.535038 748.9525,259.975 L748.9525,245.905 L751.4725,245.905 L751.4725,259.975 C751.4725,262.880015 751.979995,265.032493 752.995,266.4325 C754.185006,268.042508 756.179986,268.8475 758.98,268.8475 C760.625008,268.8475 762.164993,268.322505 763.6,267.2725 C765.210008,266.117494 766.015,264.735008 766.015,263.125 L766.015,245.905 L768.535,245.905 L768.535,271 Z M790.0075,246.535 L788.7475,248.8975 C787.487494,248.372497 786.315005,248.11 785.23,248.11 C783.374991,248.11 781.730007,248.713744 780.295,249.92125 C778.859993,251.128756 778.1425,252.589991 778.1425,254.305 L778.1425,271 L775.6225,271 L775.6225,245.905 L778.1425,245.905 L778.1425,248.845 C779.752508,246.674989 782.114984,245.59 785.23,245.59 C786.980009,245.59 788.572493,245.904997 790.0075,246.535 Z M826.6,267.535 C825.304994,268.970007 824.045006,269.976247 822.82,270.55375 C821.594994,271.131253 820.072509,271.42 818.2525,271.42 C814.577482,271.42 811.74251,270.142513 809.7475,267.5875 C807.962491,265.277488 807.07,262.232519 807.07,258.4525 C807.07,254.672481 807.962491,251.610012 809.7475,249.265 C811.74251,246.709987 814.577482,245.4325 818.2525,245.4325 C820.072509,245.4325 821.594994,245.729997 822.82,246.325 C824.045006,246.920003 825.304994,247.917493 826.6,249.3175 L824.7625,250.9975 C822.872491,248.862489 820.702512,247.795 818.2525,247.795 C815.242485,247.795 813.020007,248.879989 811.585,251.05 C810.359994,252.870009 809.7475,255.337484 809.7475,258.4525 C809.7475,261.567516 810.359994,264.034991 811.585,265.855 C813.020007,267.990011 815.242485,269.0575 818.2525,269.0575 C820.702512,269.0575 822.872491,267.990011 824.7625,265.855 L826.6,267.535 Z M851.2225,258.5575 C851.2225,267.167543 847.740035,271.4725 840.775,271.4725 C833.774965,271.4725 830.275,267.167543 830.275,258.5575 C830.275,249.912457 833.774965,245.59 840.775,245.59 C847.740035,245.59 851.2225,249.912457 851.2225,258.5575 Z M848.7025,258.5575 C848.7025,255.302484 848.195005,252.852508 847.18,251.2075 C845.919994,249.14249 843.785015,248.11 840.775,248.11 C837.729985,248.11 835.577506,249.14249 834.3175,251.2075 C833.337495,252.852508 832.8475,255.302484 832.8475,258.5575 C832.8475,261.777516 833.337495,264.209992 834.3175,265.855 C835.577506,267.92001 837.712485,268.9525 840.7225,268.9525 C843.767515,268.9525 845.919994,267.92001 847.18,265.855 C848.195005,264.209992 848.7025,261.777516 848.7025,258.5575 Z M876.8425,271 L874.3225,271 L874.3225,256.93 C874.3225,254.059986 873.815005,251.925007 872.8,250.525 C871.574994,248.914992 869.597514,248.11 866.8675,248.11 C864.83749,248.11 863.148757,248.704994 861.80125,249.895 C860.453743,251.085006 859.78,252.554991 859.78,254.305 L859.78,271 L857.26,271 L857.26,245.905 L859.78,245.905 L859.78,248.635 C861.495009,246.60499 863.857485,245.59 866.8675,245.59 C873.517533,245.59 876.8425,249.369962 876.8425,256.93 L876.8425,271 Z M891.8575,247.9 L887.71,247.9 L887.71,265.12 C887.71,266.555007 887.972497,267.482498 888.4975,267.9025 C888.917502,268.287502 889.809993,268.48 891.175,268.48 L891.175,271 L890.23,271 C886.869983,271 885.19,269.04002 885.19,265.12 L885.19,247.9 L881.5675,247.9 L881.5675,245.905 L885.19,245.905 L885.19,238.135 L887.71,238.135 L887.71,245.905 L891.8575,245.905 L891.8575,247.9 Z M916.9,257.035 L916.9,259.135 L899.2075,259.135 C899.312501,265.680033 902.182472,268.9525 907.8175,268.9525 C910.687514,268.9525 912.839993,268.025009 914.275,266.17 L916.27,267.745 C914.34499,270.230012 911.527519,271.4725 907.8175,271.4725 C900.327463,271.4725 896.5825,267.167543 896.5825,258.5575 C896.5825,249.912457 900.152464,245.59 907.2925,245.59 C910.547516,245.59 913.014992,246.727489 914.695,249.0025 C916.165007,250.99751 916.9,253.674983 916.9,257.035 Z M914.3275,256.615 C914.222499,250.944972 911.877523,248.11 907.2925,248.11 C902.287475,248.11 899.610002,250.944972 899.26,256.615 L914.3275,256.615 Z M942.52,271 L940,271 L940,256.93 C940,254.059986 939.492505,251.925007 938.4775,250.525 C937.252494,248.914992 935.275014,248.11 932.545,248.11 C930.51499,248.11 928.826257,248.704994 927.47875,249.895 C926.131243,251.085006 925.4575,252.554991 925.4575,254.305 L925.4575,271 L922.9375,271 L922.9375,245.905 L925.4575,245.905 L925.4575,248.635 C927.172509,246.60499 929.534985,245.59 932.545,245.59 C939.195033,245.59 942.52,249.369962 942.52,256.93 L942.52,271 Z M957.535,247.9 L953.3875,247.9 L953.3875,265.12 C953.3875,266.555007 953.649997,267.482498 954.175,267.9025 C954.595002,268.287502 955.487493,268.48 956.8525,268.48 L956.8525,271 L955.9075,271 C952.547483,271 950.8675,269.04002 950.8675,265.12 L950.8675,247.9 L947.245,247.9 L947.245,245.905 L950.8675,245.905 L950.8675,238.135 L953.3875,238.135 L953.3875,245.905 L957.535,245.905 L957.535,247.9 Z M967.8775,269.1625 C967.8775,269.792503 967.650002,270.326248 967.195,270.76375 C966.739998,271.201252 966.197503,271.42 965.5675,271.42 C964.937497,271.42 964.403752,271.201252 963.96625,270.76375 C963.528748,270.326248 963.31,269.792503 963.31,269.1625 C963.31,268.532497 963.528748,267.998752 963.96625,267.56125 C964.403752,267.123748 964.937497,266.905 965.5675,266.905 C966.197503,266.905 966.739998,267.123748 967.195,267.56125 C967.650002,267.998752 967.8775,268.532497 967.8775,269.1625 Z M1011.6625,236.98 L992.08,236.98 L992.08,250.735 L1009.6675,250.735 L1009.6675,253.2025 L992.08,253.2025 L992.08,271 L989.4025,271 L989.4025,234.355 L1011.6625,234.355 L1011.6625,236.98 Z M1035.4975,258.5575 C1035.4975,267.167543 1032.01503,271.4725 1025.05,271.4725 C1018.04996,271.4725 1014.55,267.167543 1014.55,258.5575 C1014.55,249.912457 1018.04996,245.59 1025.05,245.59 C1032.01503,245.59 1035.4975,249.912457 1035.4975,258.5575 Z M1032.9775,258.5575 C1032.9775,255.302484 1032.47001,252.852508 1031.455,251.2075 C1030.19499,249.14249 1028.06002,248.11 1025.05,248.11 C1022.00498,248.11 1019.85251,249.14249 1018.5925,251.2075 C1017.6125,252.852508 1017.1225,255.302484 1017.1225,258.5575 C1017.1225,261.777516 1017.6125,264.209992 1018.5925,265.855 C1019.85251,267.92001 1021.98748,268.9525 1024.9975,268.9525 C1028.04252,268.9525 1030.19499,267.92001 1031.455,265.855 C1032.47001,264.209992 1032.9775,261.777516 1032.9775,258.5575 Z M1055.92,246.535 L1054.66,248.8975 C1053.39999,248.372497 1052.22751,248.11 1051.1425,248.11 C1049.28749,248.11 1047.64251,248.713744 1046.2075,249.92125 C1044.77249,251.128756 1044.055,252.589991 1044.055,254.305 L1044.055,271 L1041.535,271 L1041.535,245.905 L1044.055,245.905 L1044.055,248.845 C1045.66501,246.674989 1048.02748,245.59 1051.1425,245.59 C1052.89251,245.59 1054.48499,245.904997 1055.92,246.535 Z M1093.09,245.905 L1081.33,277.405 C1080.03499,280.870017 1077.76002,282.585 1074.505,282.55 L1073.5075,282.55 L1073.5075,280.03 L1074.5575,280.03 C1076.62251,280.03 1078.0925,278.857512 1078.9675,276.5125 L1081.015,271 L1071.67,245.905 L1074.3475,245.905 L1082.38,267.3775 L1090.36,245.905 L1093.09,245.905 Z M1116.925,258.5575 C1116.925,267.167543 1113.44253,271.4725 1106.4775,271.4725 C1099.47746,271.4725 1095.9775,267.167543 1095.9775,258.5575 C1095.9775,249.912457 1099.47746,245.59 1106.4775,245.59 C1113.44253,245.59 1116.925,249.912457 1116.925,258.5575 Z M1114.405,258.5575 C1114.405,255.302484 1113.89751,252.852508 1112.8825,251.2075 C1111.62249,249.14249 1109.48752,248.11 1106.4775,248.11 C1103.43248,248.11 1101.28001,249.14249 1100.02,251.2075 C1099.04,252.852508 1098.55,255.302484 1098.55,258.5575 C1098.55,261.777516 1099.04,264.209992 1100.02,265.855 C1101.28001,267.92001 1103.41498,268.9525 1106.425,268.9525 C1109.47002,268.9525 1111.62249,267.92001 1112.8825,265.855 C1113.89751,264.209992 1114.405,261.777516 1114.405,258.5575 Z M1142.02,271 L1139.5,271 L1139.5,268.5325 C1137.67999,270.387509 1135.33501,271.315 1132.465,271.315 C1125.77997,271.315 1122.4375,267.535038 1122.4375,259.975 L1122.4375,245.905 L1124.9575,245.905 L1124.9575,259.975 C1124.9575,262.880015 1125.46499,265.032493 1126.48,266.4325 C1127.67001,268.042508 1129.66499,268.8475 1132.465,268.8475 C1134.11001,268.8475 1135.64999,268.322505 1137.085,267.2725 C1138.69501,266.117494 1139.5,264.735008 1139.5,263.125 L1139.5,245.905 L1142.02,245.905 L1142.02,271 Z M1163.4925,246.535 L1162.2325,248.8975 C1160.97249,248.372497 1159.80001,248.11 1158.715,248.11 C1156.85999,248.11 1155.21501,248.713744 1153.78,249.92125 C1152.34499,251.128756 1151.6275,252.589991 1151.6275,254.305 L1151.6275,271 L1149.1075,271 L1149.1075,245.905 L1151.6275,245.905 L1151.6275,248.845 C1153.23751,246.674989 1155.59998,245.59 1158.715,245.59 C1160.46501,245.59 1162.05749,245.904997 1163.4925,246.535 Z M1200.085,267.535 C1198.78999,268.970007 1197.53001,269.976247 1196.305,270.55375 C1195.07999,271.131253 1193.55751,271.42 1191.7375,271.42 C1188.06248,271.42 1185.22751,270.142513 1183.2325,267.5875 C1181.44749,265.277488 1180.555,262.232519 1180.555,258.4525 C1180.555,254.672481 1181.44749,251.610012 1183.2325,249.265 C1185.22751,246.709987 1188.06248,245.4325 1191.7375,245.4325 C1193.55751,245.4325 1195.07999,245.729997 1196.305,246.325 C1197.53001,246.920003 1198.78999,247.917493 1200.085,249.3175 L1198.2475,250.9975 C1196.35749,248.862489 1194.18751,247.795 1191.7375,247.795 C1188.72748,247.795 1186.50501,248.879989 1185.07,251.05 C1183.84499,252.870009 1183.2325,255.337484 1183.2325,258.4525 C1183.2325,261.567516 1183.84499,264.034991 1185.07,265.855 C1186.50501,267.990011 1188.72748,269.0575 1191.7375,269.0575 C1194.18751,269.0575 1196.35749,267.990011 1198.2475,265.855 L1200.085,267.535 Z M1225.18,271 L1222.66,271 L1222.66,268.5325 C1220.83999,270.387509 1218.49501,271.315 1215.625,271.315 C1208.93997,271.315 1205.5975,267.535038 1205.5975,259.975 L1205.5975,245.905 L1208.1175,245.905 L1208.1175,259.975 C1208.1175,262.880015 1208.62499,265.032493 1209.64,266.4325 C1210.83001,268.042508 1212.82499,268.8475 1215.625,268.8475 C1217.27001,268.8475 1218.80999,268.322505 1220.245,267.2725 C1221.85501,266.117494 1222.66,264.735008 1222.66,263.125 L1222.66,245.905 L1225.18,245.905 L1225.18,271 Z M1249.96,263.965 C1249.96,266.310012 1248.98001,268.182493 1247.02,269.5825 C1245.30499,270.842506 1243.22251,271.4725 1240.7725,271.4725 C1238.18249,271.4725 1236.03001,270.930005 1234.315,269.845 C1232.31999,268.619994 1231.1125,266.800012 1230.6925,264.385 L1233.16,263.965 C1233.79,267.290017 1236.32748,268.9525 1240.7725,268.9525 C1242.52251,268.9525 1244.00999,268.567504 1245.235,267.7975 C1246.70501,266.887495 1247.44,265.610008 1247.44,263.965 C1247.44,261.93499 1246.07501,260.482504 1243.345,259.6075 C1240.78999,258.907496 1238.25251,258.207503 1235.7325,257.5075 C1233.00249,256.387494 1231.6375,254.550013 1231.6375,251.995 C1231.6375,249.824989 1232.52999,248.162506 1234.315,247.0075 C1235.82001,246.027495 1237.70999,245.5375 1239.985,245.5375 C1244.36002,245.5375 1247.36999,247.217483 1249.015,250.5775 L1246.7575,251.68 C1245.56749,249.264988 1243.31002,248.0575 1239.985,248.0575 C1236.09998,248.0575 1234.1575,249.369987 1234.1575,251.995 C1234.1575,253.675008 1235.52249,254.917496 1238.2525,255.7225 C1240.80751,256.422503 1243.34499,257.139996 1245.865,257.875 C1248.59501,259.135006 1249.96,261.164986 1249.96,263.965 Z M1263.925,247.9 L1259.7775,247.9 L1259.7775,265.12 C1259.7775,266.555007 1260.04,267.482498 1260.565,267.9025 C1260.985,268.287502 1261.87749,268.48 1263.2425,268.48 L1263.2425,271 L1262.2975,271 C1258.93748,271 1257.2575,269.04002 1257.2575,265.12 L1257.2575,247.9 L1253.635,247.9 L1253.635,245.905 L1257.2575,245.905 L1257.2575,238.135 L1259.7775,238.135 L1259.7775,245.905 L1263.925,245.905 L1263.925,247.9 Z M1289.5975,258.5575 C1289.5975,267.167543 1286.11503,271.4725 1279.15,271.4725 C1272.14996,271.4725 1268.65,267.167543 1268.65,258.5575 C1268.65,249.912457 1272.14996,245.59 1279.15,245.59 C1286.11503,245.59 1289.5975,249.912457 1289.5975,258.5575 Z M1287.0775,258.5575 C1287.0775,255.302484 1286.57001,252.852508 1285.555,251.2075 C1284.29499,249.14249 1282.16002,248.11 1279.15,248.11 C1276.10498,248.11 1273.95251,249.14249 1272.6925,251.2075 C1271.7125,252.852508 1271.2225,255.302484 1271.2225,258.5575 C1271.2225,261.777516 1271.7125,264.209992 1272.6925,265.855 C1273.95251,267.92001 1276.08748,268.9525 1279.0975,268.9525 C1282.14252,268.9525 1284.29499,267.92001 1285.555,265.855 C1286.57001,264.209992 1287.0775,261.777516 1287.0775,258.5575 Z M1329.235,271 L1326.715,271 L1326.715,256.93 C1326.715,251.049971 1324.49252,248.11 1320.0475,248.11 C1315.74248,248.11 1313.59,251.049971 1313.59,256.93 L1313.59,271 L1311.07,271 L1311.07,256.93 C1311.07,251.049971 1308.84752,248.11 1304.4025,248.11 C1302.82749,248.11 1301.39251,248.634995 1300.0975,249.685 C1298.80249,250.735005 1298.155,252.029992 1298.155,253.57 L1298.155,271 L1295.635,271 L1295.635,245.905 L1298.155,245.905 L1298.155,248.5825 C1299.66001,246.58749 1301.79499,245.59 1304.56,245.59 C1308.27002,245.59 1310.91249,247.112485 1312.4875,250.1575 C1314.09751,247.112485 1316.61748,245.59 1320.0475,245.59 C1326.17253,245.59 1329.235,249.369962 1329.235,256.93 L1329.235,271 Z M1355.065,257.035 L1355.065,259.135 L1337.3725,259.135 C1337.4775,265.680033 1340.34747,268.9525 1345.9825,268.9525 C1348.85251,268.9525 1351.00499,268.025009 1352.44,266.17 L1354.435,267.745 C1352.50999,270.230012 1349.69252,271.4725 1345.9825,271.4725 C1338.49246,271.4725 1334.7475,267.167543 1334.7475,258.5575 C1334.7475,249.912457 1338.31746,245.59 1345.4575,245.59 C1348.71252,245.59 1351.17999,246.727489 1352.86,249.0025 C1354.33001,250.99751 1355.065,253.674983 1355.065,257.035 Z M1352.4925,256.615 C1352.3875,250.944972 1350.04252,248.11 1345.4575,248.11 C1340.45247,248.11 1337.775,250.944972 1337.425,256.615 L1352.4925,256.615 Z M1375.4875,246.535 L1374.2275,248.8975 C1372.96749,248.372497 1371.79501,248.11 1370.71,248.11 C1368.85499,248.11 1367.21001,248.713744 1365.775,249.92125 C1364.33999,251.128756 1363.6225,252.589991 1363.6225,254.305 L1363.6225,271 L1361.1025,271 L1361.1025,245.905 L1363.6225,245.905 L1363.6225,248.845 C1365.23251,246.674989 1367.59498,245.59 1370.71,245.59 C1372.46001,245.59 1374.05249,245.904997 1375.4875,246.535 Z M1397.1175,263.965 C1397.1175,266.310012 1396.13751,268.182493 1394.1775,269.5825 C1392.46249,270.842506 1390.38001,271.4725 1387.93,271.4725 C1385.33999,271.4725 1383.18751,270.930005 1381.4725,269.845 C1379.47749,268.619994 1378.27,266.800012 1377.85,264.385 L1380.3175,263.965 C1380.9475,267.290017 1383.48498,268.9525 1387.93,268.9525 C1389.68001,268.9525 1391.16749,268.567504 1392.3925,267.7975 C1393.86251,266.887495 1394.5975,265.610008 1394.5975,263.965 C1394.5975,261.93499 1393.23251,260.482504 1390.5025,259.6075 C1387.94749,258.907496 1385.41001,258.207503 1382.89,257.5075 C1380.15999,256.387494 1378.795,254.550013 1378.795,251.995 C1378.795,249.824989 1379.68749,248.162506 1381.4725,247.0075 C1382.97751,246.027495 1384.86749,245.5375 1387.1425,245.5375 C1391.51752,245.5375 1394.52749,247.217483 1396.1725,250.5775 L1393.915,251.68 C1392.72499,249.264988 1390.46752,248.0575 1387.1425,248.0575 C1383.25748,248.0575 1381.315,249.369987 1381.315,251.995 C1381.315,253.675008 1382.67999,254.917496 1385.41,255.7225 C1387.96501,256.422503 1390.50249,257.139996 1393.0225,257.875 C1395.75251,259.135006 1397.1175,261.164986 1397.1175,263.965 Z M1407.1975,269.1625 C1407.1975,269.792503 1406.97,270.326248 1406.515,270.76375 C1406.06,271.201252 1405.5175,271.42 1404.8875,271.42 C1404.2575,271.42 1403.72375,271.201252 1403.28625,270.76375 C1402.84875,270.326248 1402.63,269.792503 1402.63,269.1625 C1402.63,268.532497 1402.84875,267.998752 1403.28625,267.56125 C1403.72375,267.123748 1404.2575,266.905 1404.8875,266.905 C1405.5175,266.905 1406.06,267.123748 1406.515,267.56125 C1406.97,267.998752 1407.1975,268.532497 1407.1975,269.1625 Z" id="Your-player.-Your-co" fill="#FFFFFF"></path>
            <g id="TV">
                <g id="TV-Background">
                    <use fill="#FFFFFF" fill-rule="evenodd" xlink:href="#path-1"></use>
                    <rect stroke="#FFFFFF" stroke-width="1" x="0.5" y="0.5" width="372" height="372" rx="75"></rect>
                </g>
                <rect id="TV-Frame" fill="#0096D3" x="53" y="91" width="268" height="229" rx="50"></rect>
                <rect id="Antenna-Left" fill="#0096D3" transform="translate(161.804148, 73.304449) rotate(-49.000000) translate(-161.804148, -73.304449) " x="154.304148" y="23.8044488" width="15" height="99" rx="7.5"></rect>
                <rect id="Antenna-Right" fill="#0096D3" transform="translate(211.804148, 73.304449) scale(-1, 1) rotate(-49.000000) translate(-211.804148, -73.304449) " x="204.304148" y="23.8044488" width="15" height="99" rx="7.5"></rect>
                <rect id="TV-Stand" fill="#0096D3" x="93" y="319" width="187" height="9"></rect>
                <circle id="TV-Button" fill="#FFFFFF" cx="186.5" cy="301.5" r="10.5"></circle>
                <rect id="Screen" fill="#FFFFFF" x="76" y="114" width="222" height="165" rx="25"></rect>
                <path d="M177.496094,144.371094 L121.832031,144.371094 C103.277251,144.371094 94,151.792895 94,166.636719 L94,177.769531 C94,192.613355 103.277251,200.035156 121.832031,200.035156 L155.230469,200.035156 C158.941425,200.035156 160.796875,201.890606 160.796875,205.601562 L160.796875,216.734375 C160.796875,220.445331 158.941425,222.300781 155.230469,222.300781 L99.5664062,222.300781 C95.8554502,222.300781 94,224.156231 94,227.867188 L94,233.433594 C94,237.14455 95.8554502,239 99.5664062,239 L155.230469,239 C173.785249,239 183.0625,231.578199 183.0625,216.734375 L183.0625,205.601562 C183.0625,190.757738 173.785249,183.335938 155.230469,183.335938 L121.832031,183.335938 C118.121075,183.335938 116.265625,181.480487 116.265625,177.769531 L116.265625,166.636719 C116.265625,162.925763 118.121075,161.070312 121.832031,161.070312 L177.496094,161.070312 C181.20705,161.070312 183.0625,159.214862 183.0625,155.503906 L183.0625,149.9375 C183.0625,146.226544 181.20705,144.371094 177.496094,144.371094 Z M199.761719,144.371094 L255.425781,144.371094 C273.980562,144.371094 283.257812,151.792895 283.257812,166.636719 L283.257812,177.992188 C283.257812,183.039088 281.921888,187.640604 279.25,191.796875 C281.921888,194.76564 283.257812,199.367156 283.257812,205.601562 L283.257812,216.734375 C283.257812,231.578199 273.980562,239 255.425781,239 L199.761719,239 C196.050763,239 194.195312,237.14455 194.195312,233.433594 L194.195312,227.867188 C194.195312,224.156231 196.050763,222.300781 199.761719,222.300781 L255.425781,222.300781 C259.136737,222.300781 260.992188,220.445331 260.992188,216.734375 L260.992188,205.601562 C260.992188,201.890606 259.136737,200.035156 255.425781,200.035156 L210.894531,200.035156 C207.183575,200.035156 205.328125,198.179706 205.328125,194.46875 L205.328125,188.902344 C205.328125,185.191388 207.183575,183.335938 210.894531,183.335938 L255.425781,183.335938 C259.136737,183.335938 260.992188,181.480487 260.992188,177.769531 L260.992188,166.636719 C260.992188,162.925763 259.136737,161.070312 255.425781,161.070312 L199.761719,161.070312 C196.050763,161.070312 194.195312,159.214862 194.195312,155.503906 L194.195312,149.9375 C194.195312,146.226544 196.050763,144.371094 199.761719,144.371094 Z" id="S3" fill="#0096D3"></path>
            </g>
        </g>
    </g>
</svg>