<?xml version="1.0" encoding="UTF-8"?>
<svg width="1581px" height="407px" viewBox="0 0 1581 407" version="1.1" xmlns="http://www.w3.org/2000/svg" xmlns:xlink="http://www.w3.org/1999/xlink">
    <!-- Generator: Sketch 46.2 (44496) - http://www.bohemiancoding.com/sketch -->
    <title>Churnly Logo Normal Copy</title>
    <desc>Created with Sketch.</desc>
    <defs></defs>
    <g id="Page-1" stroke="none" stroke-width="1" fill="none" fill-rule="evenodd">
        <g id="Churnly-Logo-Normal-Copy" fill="#FFFFFF">
            <path d="M875.552842,376.034853 L875.552842,344.506702 L869,344.506702 L869,339.117962 L875.552842,337.509383 L875.552842,332.844504 C875.552842,330.109906 875.899127,327.737275 876.591707,325.726542 C877.284288,323.715808 878.229912,322.067031 879.428609,320.780161 C880.627305,319.493291 881.999126,318.541558 883.544113,317.924933 C885.0891,317.308308 886.740613,317 888.498701,317 C890.682993,317 892.893889,317.45576 895.131456,318.367292 L895.131456,324.077748 C893.213541,323.487933 891.562029,323.193029 890.176868,323.193029 C887.992576,323.193029 886.301108,323.863264 885.102411,325.203753 C883.903714,326.544243 883.304375,328.688993 883.304375,331.63807 L883.304375,337.509383 L895.131456,337.509383 L895.131456,344.506702 L883.304375,344.506702 L883.304375,376.034853 L875.552842,376.034853 Z M919.376277,377 C916.712507,377 914.221919,376.477217 911.904439,375.431635 C909.586959,374.386054 907.562524,372.951752 905.831073,371.128686 C904.099622,369.305621 902.727801,367.16087 901.715569,364.69437 C900.703336,362.22787 900.197227,359.60055 900.197227,356.812332 C900.197227,354.024115 900.703336,351.396795 901.715569,348.930295 C902.727801,346.463795 904.099622,344.319044 905.831073,342.495979 C907.562524,340.672913 909.586959,339.238611 911.904439,338.193029 C914.221919,337.147448 916.712507,336.624665 919.376277,336.624665 C921.986772,336.624665 924.464042,337.147448 926.808159,338.193029 C929.152277,339.238611 931.190031,340.672913 932.921482,342.495979 C934.652932,344.319044 936.024754,346.463795 937.036986,348.930295 C938.049219,351.396795 938.555328,354.024115 938.555328,356.812332 C938.555328,359.60055 938.049219,362.22787 937.036986,364.69437 C936.024754,367.16087 934.652932,369.305621 932.921482,371.128686 C931.190031,372.951752 929.152277,374.386054 926.808159,375.431635 C924.464042,376.477217 921.986772,377 919.376277,377 Z M919.376277,343.621984 C917.831291,343.621984 916.366239,343.970506 914.981078,344.66756 C913.595918,345.364615 912.38392,346.302943 911.34505,347.482574 C910.30618,348.662204 909.493742,350.056292 908.907712,351.664879 C908.321683,353.273466 908.028673,354.989267 908.028673,356.812332 C908.028673,358.635398 908.321683,360.351198 908.907712,361.959786 C909.493742,363.568373 910.30618,364.975865 911.34505,366.182306 C912.38392,367.388746 913.595918,368.340479 914.981078,369.037534 C916.366239,369.734588 917.831291,370.08311 919.376277,370.08311 C920.921264,370.08311 922.386316,369.734588 923.771476,369.037534 C925.156637,368.340479 926.355316,367.388746 927.367548,366.182306 C928.379781,364.975865 929.1789,363.568373 929.76493,361.959786 C930.350959,360.351198 930.643969,358.635398 930.643969,356.812332 C930.643969,354.989267 930.350959,353.273466 929.76493,351.664879 C929.1789,350.056292 928.379781,348.662204 927.367548,347.482574 C926.355316,346.302943 925.156637,345.364615 923.771476,344.66756 C922.386316,343.970506 920.921264,343.621984 919.376277,343.621984 Z M970.072206,344.66756 L968.953428,344.184987 C968.633775,344.077747 968.260853,343.97051 967.83465,343.863271 C967.408446,343.756032 966.955612,343.702413 966.476134,343.702413 C964.931147,343.702413 963.492732,343.957102 962.160847,344.466488 C960.828962,344.975874 959.683558,345.659513 958.724601,346.517426 C957.765643,347.375339 957.00648,348.380691 956.447089,349.533512 C955.887697,350.686333 955.608005,351.90616 955.608005,353.193029 L955.528092,376.034853 L947.77656,376.034853 L947.77656,337.509383 L953.929838,337.509383 L955.528092,341.772118 C956.593601,340.21715 957.992059,338.970514 959.72351,338.032172 C961.45496,337.093829 963.625901,336.624665 966.236396,336.624665 C967.941209,336.624665 969.885732,336.865949 972.070023,337.348525 L970.072206,344.66756 Z M1063.79244,319.010724 L1073.14223,319.010724 L1056.12082,376.034853 L1047.96973,376.034853 L1037.42125,340.565684 L1036.06273,334.131367 L1034.6243,340.887399 L1024.15574,376.034853 L1015.92473,376.034853 L998.903321,319.010724 L1008.09328,319.010724 L1019.76054,362.442359 L1032.94614,319.010724 L1039.25924,319.010724 L1052.28501,362.040214 L1063.79244,319.010724 Z M1097.86653,377 C1095.20276,377 1092.71217,376.477217 1090.39469,375.431635 C1088.07721,374.386054 1086.05277,372.951752 1084.32132,371.128686 C1082.58987,369.305621 1081.21805,367.16087 1080.20582,364.69437 C1079.19358,362.22787 1078.68748,359.60055 1078.68748,356.812332 C1078.68748,354.024115 1079.19358,351.396795 1080.20582,348.930295 C1081.21805,346.463795 1082.58987,344.319044 1084.32132,342.495979 C1086.05277,340.672913 1088.07721,339.238611 1090.39469,338.193029 C1092.71217,337.147448 1095.20276,336.624665 1097.86653,336.624665 C1100.47702,336.624665 1102.95429,337.147448 1105.29841,338.193029 C1107.64253,339.238611 1109.68028,340.672913 1111.41173,342.495979 C1113.14318,344.319044 1114.515,346.463795 1115.52724,348.930295 C1116.53947,351.396795 1117.04558,354.024115 1117.04558,356.812332 C1117.04558,359.60055 1116.53947,362.22787 1115.52724,364.69437 C1114.515,367.16087 1113.14318,369.305621 1111.41173,371.128686 C1109.68028,372.951752 1107.64253,374.386054 1105.29841,375.431635 C1102.95429,376.477217 1100.47702,377 1097.86653,377 Z M1097.86653,343.621984 C1096.32154,343.621984 1094.85649,343.970506 1093.47133,344.66756 C1092.08617,345.364615 1090.87417,346.302943 1089.8353,347.482574 C1088.79643,348.662204 1087.98399,350.056292 1087.39796,351.664879 C1086.81193,353.273466 1086.51892,354.989267 1086.51892,356.812332 C1086.51892,358.635398 1086.81193,360.351198 1087.39796,361.959786 C1087.98399,363.568373 1088.79643,364.975865 1089.8353,366.182306 C1090.87417,367.388746 1092.08617,368.340479 1093.47133,369.037534 C1094.85649,369.734588 1096.32154,370.08311 1097.86653,370.08311 C1099.41151,370.08311 1100.87656,369.734588 1102.26173,369.037534 C1103.64689,368.340479 1104.84556,367.388746 1105.8578,366.182306 C1106.87003,364.975865 1107.66915,363.568373 1108.25518,361.959786 C1108.84121,360.351198 1109.13422,358.635398 1109.13422,356.812332 C1109.13422,354.989267 1108.84121,353.273466 1108.25518,351.664879 C1107.66915,350.056292 1106.87003,348.662204 1105.8578,347.482574 C1104.84556,346.302943 1103.64689,345.364615 1102.26173,344.66756 C1100.87656,343.970506 1099.41151,343.621984 1097.86653,343.621984 Z M1148.56245,344.66756 L1147.44368,344.184987 C1147.12402,344.077747 1146.7511,343.97051 1146.3249,343.863271 C1145.8987,343.756032 1145.44586,343.702413 1144.96638,343.702413 C1143.4214,343.702413 1141.98298,343.957102 1140.6511,344.466488 C1139.31921,344.975874 1138.17381,345.659513 1137.21485,346.517426 C1136.25589,347.375339 1135.49673,348.380691 1134.93734,349.533512 C1134.37795,350.686333 1134.09825,351.90616 1134.09825,353.193029 L1134.01834,376.034853 L1126.26681,376.034853 L1126.26681,337.509383 L1132.42009,337.509383 L1134.01834,341.772118 C1135.08385,340.21715 1136.48231,338.970514 1138.21376,338.032172 C1139.94521,337.093829 1142.11615,336.624665 1144.72664,336.624665 C1146.43146,336.624665 1148.37598,336.865949 1150.56027,337.348525 L1148.56245,344.66756 Z M1194.46362,317.321716 L1194.46362,376.034853 L1188.31034,376.034853 L1186.71209,372.013405 C1185.1671,373.568372 1183.40904,374.788199 1181.43785,375.672922 C1179.46666,376.557645 1177.20249,377 1174.64527,377 C1171.9815,377 1169.53087,376.477217 1167.2933,375.431635 C1165.05573,374.386054 1163.11121,372.951752 1161.45967,371.128686 C1159.80813,369.305621 1158.51622,367.16087 1157.5839,364.69437 C1156.65159,362.22787 1156.18543,359.60055 1156.18543,356.812332 C1156.18543,354.024115 1156.65159,351.396795 1157.5839,348.930295 C1158.51622,346.463795 1159.80813,344.319044 1161.45967,342.495979 C1163.11121,340.672913 1165.05573,339.238611 1167.2933,338.193029 C1169.53087,337.147448 1171.9815,336.624665 1174.64527,336.624665 C1177.30904,336.624665 1179.62648,337.06702 1181.59767,337.951743 C1183.56886,338.836466 1185.27365,340.083102 1186.71209,341.691689 L1186.71209,317.321716 L1194.46362,317.321716 Z M1175.28457,370.08311 C1176.88283,370.08311 1178.3612,369.815016 1179.71973,369.27882 C1181.07825,368.742625 1182.27693,367.924938 1183.3158,366.825737 C1184.35467,365.726536 1185.16711,364.345853 1185.75313,362.683646 C1186.33916,361.021439 1186.63217,359.064354 1186.63217,356.812332 C1186.63217,354.399452 1186.33916,352.361939 1185.75313,350.699732 C1185.16711,349.037525 1184.35467,347.683651 1183.3158,346.63807 C1182.27693,345.592488 1181.07825,344.841825 1179.71973,344.386059 C1178.3612,343.930293 1176.88283,343.702413 1175.28457,343.702413 C1173.73958,343.702413 1172.27453,344.03753 1170.88937,344.707775 C1169.50421,345.378019 1168.30553,346.302943 1167.2933,347.482574 C1166.28107,348.662204 1165.48195,350.056292 1164.89592,351.664879 C1164.30989,353.273466 1164.01688,354.989267 1164.01688,356.812332 C1164.01688,358.635398 1164.30989,360.351198 1164.89592,361.959786 C1165.48195,363.568373 1166.28107,364.975865 1167.2933,366.182306 C1168.30553,367.388746 1169.50421,368.340479 1170.88937,369.037534 C1172.27453,369.734588 1173.73958,370.08311 1175.28457,370.08311 Z M1229.17701,319.010724 C1231.41457,319.010724 1233.51892,319.439674 1235.49011,320.297587 C1237.4613,321.1555 1239.17941,322.308304 1240.64448,323.756032 C1242.10955,325.203761 1243.26828,326.906156 1244.12068,328.863271 C1244.97309,330.820385 1245.39929,332.924922 1245.39929,335.176944 C1245.39929,337.428966 1244.97309,339.546907 1244.12068,341.530831 C1243.26828,343.514755 1242.10955,345.230556 1240.64448,346.678284 C1239.17941,348.126013 1237.4613,349.265411 1235.49011,350.096515 C1233.51892,350.927618 1231.41457,351.343164 1229.17701,351.343164 L1214.47307,351.423592 L1214.47307,376.034853 L1206.16215,376.034853 L1206.16215,319.010724 L1229.17701,319.010724 Z M1229.17701,343.541555 C1230.29579,343.541555 1231.34796,343.313675 1232.33356,342.857909 C1233.31915,342.402142 1234.18487,341.798931 1234.93072,341.048257 C1235.67658,340.297583 1236.2626,339.399469 1236.6888,338.353887 C1237.115,337.308306 1237.3281,336.195716 1237.3281,335.016086 C1237.3281,333.836455 1237.115,332.737271 1236.6888,331.718499 C1236.2626,330.699727 1235.67658,329.801612 1234.93072,329.024129 C1234.18487,328.246645 1233.31915,327.630029 1232.33356,327.174263 C1231.34796,326.718496 1230.29579,326.490617 1229.17701,326.490617 L1214.47307,326.490617 L1214.47307,343.541555 L1229.17701,343.541555 Z M1278.11486,344.66756 L1276.99608,344.184987 C1276.67642,344.077747 1276.3035,343.97051 1275.8773,343.863271 C1275.4511,343.756032 1274.99826,343.702413 1274.51878,343.702413 C1272.9738,343.702413 1271.53538,343.957102 1270.2035,344.466488 C1268.87161,344.975874 1267.72621,345.659513 1266.76725,346.517426 C1265.80829,347.375339 1265.04913,348.380691 1264.48974,349.533512 C1263.93035,350.686333 1263.65065,351.90616 1263.65065,353.193029 L1263.57074,376.034853 L1255.81921,376.034853 L1255.81921,337.509383 L1261.97249,337.509383 L1263.57074,341.772118 C1264.63625,340.21715 1266.03471,338.970514 1267.76616,338.032172 C1269.49761,337.093829 1271.66855,336.624665 1274.27905,336.624665 C1275.98386,336.624665 1277.92838,336.865949 1280.11267,337.348525 L1278.11486,344.66756 Z M1305.55618,377 C1302.78586,377 1300.18873,376.477217 1297.7647,375.431635 C1295.34066,374.386054 1293.223,372.951752 1291.41164,371.128686 C1289.60027,369.305621 1288.17518,367.16087 1287.13631,364.69437 C1286.09743,362.22787 1285.57801,359.60055 1285.57801,356.812332 C1285.57801,354.024115 1286.0708,351.396795 1287.05639,348.930295 C1288.04199,346.463795 1289.37385,344.319044 1291.05203,342.495979 C1292.7302,340.672913 1294.68805,339.238611 1296.92561,338.193029 C1299.16318,337.147448 1301.56054,336.624665 1304.11776,336.624665 C1306.72825,336.624665 1309.13893,337.080424 1311.34986,337.991957 C1313.56079,338.90349 1315.47867,340.324387 1317.10357,342.254692 C1318.72847,344.184996 1319.99374,346.638055 1320.89943,349.613941 C1321.80511,352.589827 1322.25794,356.142071 1322.25794,360.270777 L1293.80902,360.270777 C1294.18194,361.664886 1294.76796,362.965141 1295.5671,364.171582 C1296.36623,365.378022 1297.31185,366.423588 1298.404,367.308311 C1299.49614,368.193034 1300.72146,368.876673 1302.07998,369.359249 C1303.4385,369.841825 1304.8636,370.08311 1306.35531,370.08311 C1308.37978,370.08311 1310.25771,369.707779 1311.98916,368.957105 C1313.72061,368.206431 1315.19898,367.214483 1316.42431,365.981233 L1321.21908,370.806971 C1319.35444,372.683655 1317.07695,374.184981 1314.38654,375.310992 C1311.69613,376.437003 1308.75271,377 1305.55618,377 Z M1304.11776,343.702413 C1302.89242,343.702413 1301.7337,343.943697 1300.64155,344.426273 C1299.54941,344.90885 1298.53719,345.579084 1297.60487,346.436997 C1296.67255,347.29491 1295.87343,348.313667 1295.20749,349.493298 C1294.54155,350.672928 1294.04876,351.959779 1293.7291,353.353887 L1313.94702,353.353887 C1313.84047,352.067018 1313.54746,350.833786 1313.06798,349.654155 C1312.5885,348.474525 1311.92257,347.442364 1311.07016,346.557641 C1310.21776,345.672918 1309.21886,344.975874 1308.07344,344.466488 C1306.92801,343.957102 1305.60947,343.702413 1304.11776,343.702413 Z M1349.77918,367.991957 C1350.25866,367.563001 1350.68486,367.080432 1351.05779,366.544236 C1351.43071,366.00804 1351.61718,365.391424 1351.61718,364.69437 C1351.61718,363.836457 1351.31085,363.112603 1350.69818,362.522788 C1350.08551,361.932973 1349.33967,361.436999 1348.46062,361.034853 C1347.58158,360.632706 1346.66259,360.324398 1345.70364,360.10992 C1344.74468,359.895441 1343.94556,359.707776 1343.30625,359.546917 C1341.54817,359.11796 1339.89665,358.595177 1338.35167,357.978552 C1336.80668,357.361927 1335.4615,356.611264 1334.31607,355.726542 C1333.17065,354.841819 1332.26498,353.796253 1331.59904,352.589812 C1330.9331,351.383372 1330.60013,349.94907 1330.60013,348.286863 C1330.60013,346.731896 1330.97306,345.270784 1331.71891,343.903485 C1332.46477,342.536186 1333.46367,341.329764 1334.71564,340.284182 C1335.96761,339.238601 1337.43266,338.40751 1339.11084,337.790885 C1340.78901,337.17426 1342.56039,336.865952 1344.42503,336.865952 C1346.07657,336.865952 1347.64817,337.107236 1349.13988,337.589812 C1350.63159,338.072388 1351.97678,338.729218 1353.17547,339.560322 C1354.37417,340.391425 1355.38639,341.396777 1356.21216,342.576408 C1357.03793,343.756038 1357.58399,345.069698 1357.85037,346.517426 L1350.89796,348.206434 C1350.57831,346.919565 1349.88574,345.847189 1348.82023,344.989276 C1347.75472,344.131363 1346.28967,343.702413 1344.42503,343.702413 C1343.78573,343.702413 1343.11979,343.796246 1342.42721,343.983914 C1341.73463,344.171583 1341.09534,344.453081 1340.50931,344.828418 C1339.92328,345.203755 1339.43049,345.659515 1339.03092,346.19571 C1338.63136,346.731906 1338.43158,347.348522 1338.43158,348.045576 C1338.43158,348.79625 1338.658,349.439676 1339.11084,349.975871 C1339.56368,350.512067 1340.10974,350.954422 1340.74905,351.302949 C1341.38835,351.651476 1342.08092,351.932975 1342.82678,352.147453 C1343.57263,352.361931 1344.2652,352.549597 1344.90451,352.710456 C1347.7281,353.40751 1350.07219,354.158173 1351.93683,354.962466 C1353.80147,355.76676 1355.29315,356.65147 1356.41194,357.616622 C1357.53072,358.581774 1358.31652,359.640745 1358.76936,360.793566 C1359.2222,361.946386 1359.44862,363.246642 1359.44862,364.69437 C1359.44862,366.410196 1359.06238,368.018759 1358.28989,369.520107 C1357.51739,371.021455 1356.4519,372.32171 1355.09338,373.420912 C1353.73486,374.520113 1352.10998,375.378013 1350.2187,375.994638 C1348.32743,376.611263 1346.28967,376.919571 1344.10538,376.919571 C1340.80231,376.919571 1337.85888,376.101885 1335.27503,374.466488 C1332.69117,372.831091 1330.94643,370.646126 1330.04074,367.911528 L1336.59359,364.935657 C1337.44599,366.812342 1338.53812,368.085788 1339.87001,368.756032 C1341.20189,369.426277 1342.72022,369.761394 1344.42503,369.761394 C1346.55605,369.761394 1348.34075,369.171588 1349.77918,367.991957 Z M1386.33056,367.991957 C1386.81004,367.563001 1387.23624,367.080432 1387.60917,366.544236 C1387.98209,366.00804 1388.16855,365.391424 1388.16855,364.69437 C1388.16855,363.836457 1387.86223,363.112603 1387.24956,362.522788 C1386.63689,361.932973 1385.89105,361.436999 1385.012,361.034853 C1384.13296,360.632706 1383.21397,360.324398 1382.25501,360.10992 C1381.29606,359.895441 1380.49694,359.707776 1379.85763,359.546917 C1378.09954,359.11796 1376.44803,358.595177 1374.90304,357.978552 C1373.35806,357.361927 1372.01287,356.611264 1370.86745,355.726542 C1369.72203,354.841819 1368.81636,353.796253 1368.15042,352.589812 C1367.48448,351.383372 1367.15151,349.94907 1367.15151,348.286863 C1367.15151,346.731896 1367.52443,345.270784 1368.27029,343.903485 C1369.01615,342.536186 1370.01504,341.329764 1371.26702,340.284182 C1372.51899,339.238601 1373.98404,338.40751 1375.66222,337.790885 C1377.34039,337.17426 1379.11177,336.865952 1380.97641,336.865952 C1382.62795,336.865952 1384.19955,337.107236 1385.69126,337.589812 C1387.18297,338.072388 1388.52816,338.729218 1389.72685,339.560322 C1390.92555,340.391425 1391.93777,341.396777 1392.76354,342.576408 C1393.5893,343.756038 1394.13537,345.069698 1394.40175,346.517426 L1387.44934,348.206434 C1387.12969,346.919565 1386.43712,345.847189 1385.37161,344.989276 C1384.3061,344.131363 1382.84105,343.702413 1380.97641,343.702413 C1380.33711,343.702413 1379.67117,343.796246 1378.97859,343.983914 C1378.28601,344.171583 1377.64672,344.453081 1377.06069,344.828418 C1376.47466,345.203755 1375.98187,345.659515 1375.5823,346.19571 C1375.18274,346.731906 1374.98296,347.348522 1374.98296,348.045576 C1374.98296,348.79625 1375.20937,349.439676 1375.66222,349.975871 C1376.11506,350.512067 1376.66112,350.954422 1377.30043,351.302949 C1377.93973,351.651476 1378.6323,351.932975 1379.37816,352.147453 C1380.12401,352.361931 1380.81658,352.549597 1381.45589,352.710456 C1384.27948,353.40751 1386.62357,354.158173 1388.48821,354.962466 C1390.35284,355.76676 1391.84453,356.65147 1392.96332,357.616622 C1394.0821,358.581774 1394.8679,359.640745 1395.32074,360.793566 C1395.77358,361.946386 1396,363.246642 1396,364.69437 C1396,366.410196 1395.61376,368.018759 1394.84127,369.520107 C1394.06877,371.021455 1393.00328,372.32171 1391.64476,373.420912 C1390.28623,374.520113 1388.66136,375.378013 1386.77008,375.994638 C1384.87881,376.611263 1382.84105,376.919571 1380.65676,376.919571 C1377.35368,376.919571 1374.41026,376.101885 1371.82641,374.466488 C1369.24255,372.831091 1367.4978,370.646126 1366.59212,367.911528 L1373.14496,364.935657 C1373.99737,366.812342 1375.0895,368.085788 1376.42139,368.756032 C1377.75327,369.426277 1379.2716,369.761394 1380.97641,369.761394 C1383.10743,369.761394 1384.89213,369.171588 1386.33056,367.991957 Z" id="for-WordPress"></path>
            <path d="M593.27894,219.453175 C602.840381,219.453175 612.202484,217.258723 621.365531,212.869752 C630.528579,208.480782 639.791085,201.099442 649.153329,190.725511 L678.435095,218.555436 C666.682491,233.717335 653.286715,245.188336 638.247366,252.968784 C623.208016,260.749232 607.720707,264.639397 591.784972,264.639397 C577.442812,264.639397 563.997237,261.696836 551.447847,255.811625 C538.898456,249.926415 527.992601,241.996462 518.729956,232.021529 C509.46731,222.046595 502.19674,210.425972 496.918028,197.159311 C491.639316,183.89265 489,169.778331 489,154.815931 C489,139.853531 491.738913,125.789086 497.216822,112.622174 C502.694731,99.4552625 510.114696,87.8845135 519.47694,77.9095802 C528.839183,67.9346469 539.894433,60.0545679 552.643021,54.2691066 C565.391608,48.4836453 578.936779,45.590958 593.27894,45.590958 C606.625118,45.590958 619.323715,48.0846539 631.375114,53.0721206 C643.426514,58.0595872 655.22874,66.3386576 666.782147,77.9095802 L640.488317,109.928956 C632.122056,102.148508 624.204107,96.9117465 616.734232,94.2185145 C609.264356,91.5252826 601.446004,90.1786868 593.27894,90.1786868 C585.111876,90.1786868 577.393121,91.8744 570.122442,95.2658773 C562.851763,98.6573546 556.527363,103.245755 551.149053,109.031216 C545.770743,114.816678 541.537877,121.649404 538.450328,129.529602 C535.36278,137.409799 533.819029,145.838491 533.819029,154.815931 C533.819029,163.793371 535.36278,172.172189 538.450328,179.952637 C541.537877,187.733085 545.770743,194.565812 551.149053,200.451023 C556.527363,206.336233 562.851763,210.974508 570.122442,214.365985 C577.393121,217.757462 585.111876,219.453175 593.27894,219.453175 Z M789.023442,108.133477 C798.78408,108.133477 807.897191,110.178308 816.36305,114.26803 C824.828909,118.357753 832.149277,123.943632 838.324374,131.025834 C844.499471,138.108037 849.329918,146.387107 852.81586,155.863294 C856.301802,165.33948 858.044746,175.463886 858.044746,186.236814 L858.044746,260.749193 L817.707621,260.749193 L817.707621,233.517761 C817.707621,225.936812 817.757419,218.106607 817.857017,210.026911 C817.956616,201.947215 818.006414,195.01474 818.006414,189.229279 C818.006414,183.643316 817.110043,178.157185 815.317272,172.770721 C813.524502,167.384257 811.034581,162.646235 807.847434,158.556512 C804.660287,154.46679 800.925406,151.175111 796.642677,148.681378 C792.359949,146.187645 787.828292,144.940797 783.047572,144.940797 C778.466048,144.940797 774.083787,145.788653 769.900657,147.484392 C765.717526,149.18013 762.032443,151.673826 758.845296,154.965554 C755.658149,158.257282 753.11843,162.396818 751.226061,167.384284 C749.333693,172.371751 748.387523,178.256873 748.387523,185.039828 L748.387523,260.749193 L706.855223,260.749193 L706.855223,42.2992465 L748.387523,42.2992465 L748.387523,123.694295 C753.566637,118.706828 759.492649,114.866537 766.165738,112.173305 C772.838826,109.480073 780.457985,108.133477 789.023442,108.133477 Z M976.401726,112.322928 L1017.63523,112.322928 L1017.63523,260.749193 L982.377596,260.749193 L976.401726,249.377826 C971.621005,252.769303 966.192977,255.512368 960.117479,257.607104 C954.04198,259.70184 947.518386,260.749193 940.546503,260.749193 C935.168192,260.749193 929.042986,259.95121 922.170701,258.355221 C915.298416,256.759231 908.874419,253.766796 902.898519,249.377826 C896.922618,244.988855 891.892978,238.904237 887.809446,231.123789 C883.725914,223.343341 881.684178,213.26881 881.684178,200.899892 L881.684178,112.322928 L923.216478,112.322928 L923.216478,199.40366 C923.216478,203.992129 923.963455,207.882295 925.45743,211.074273 C926.951405,214.266252 928.943342,216.809822 931.4333,218.705059 C933.923259,220.600297 936.761769,221.996766 939.948916,222.89451 C943.136063,223.792254 946.422758,224.241119 949.809102,224.241119 C952.398659,224.241119 955.237169,223.792254 958.324717,222.89451 C961.412266,221.996766 964.300574,220.550423 966.98973,218.555436 C969.678885,216.560449 971.919814,213.967006 973.712584,210.775027 C975.505354,207.583048 976.401726,203.79263 976.401726,199.40366 L976.401726,112.322928 Z M1091.47198,132.970936 C1093.46394,129.778958 1095.75467,126.736649 1098.34423,123.843918 C1100.93378,120.951188 1104.02129,118.357744 1107.60683,116.063509 C1111.19237,113.769274 1115.27584,111.92394 1119.85736,110.527449 C1124.43888,109.130958 1129.61792,108.432723 1135.39462,108.432723 C1142.16731,108.432723 1150.03546,109.629697 1158.99931,112.023681 L1155.115,148.831001 C1152.92383,148.432004 1150.7327,147.933265 1148.54154,147.334769 C1146.74877,146.935771 1144.75683,146.586654 1142.56567,146.287406 C1140.37451,145.988158 1138.38257,145.838536 1136.5898,145.838536 C1130.2155,145.838536 1124.28949,146.736267 1118.81158,148.531755 C1113.33367,150.327243 1108.60282,152.820938 1104.61889,156.012917 C1100.63496,159.204896 1097.44786,163.045187 1095.0575,167.533907 C1092.66714,172.022627 1091.47198,176.860397 1091.47198,182.047363 L1091.47198,260.749193 L1050.23847,260.749193 L1050.23847,112.322928 L1087.58766,112.322928 L1091.47198,132.970936 Z M1257.03833,112.322928 C1262.61584,112.322928 1268.79084,113.120911 1275.56353,114.7169 C1282.33622,116.312889 1288.71042,119.305324 1294.68632,123.694295 C1300.66222,128.083266 1305.69186,134.167884 1309.77539,141.948332 C1313.85892,149.728779 1315.90066,159.803311 1315.90066,172.172228 L1315.90066,260.749193 L1274.36836,260.749193 L1274.36836,173.668461 C1274.36836,169.079991 1273.62138,165.189826 1272.12741,161.997847 C1270.63343,158.805869 1268.64149,156.262299 1266.15153,154.367061 C1263.66158,152.471824 1260.82307,151.075354 1257.63592,150.17761 C1254.44877,149.279866 1251.26167,148.831001 1248.07453,148.831001 C1245.48497,148.831001 1242.64646,149.279866 1239.55891,150.17761 C1236.47136,151.075354 1233.58305,152.521698 1230.8939,154.516685 C1228.20474,156.511671 1225.96381,159.105115 1224.17104,162.297094 C1222.37827,165.489072 1221.4819,169.27949 1221.4819,173.668461 L1221.4819,260.749193 L1180.2484,260.749193 L1180.2484,112.322928 L1215.50603,112.322928 L1221.4819,123.694295 C1226.26262,120.302818 1231.64085,117.559752 1237.61675,115.465016 C1243.59265,113.37028 1250.06645,112.322928 1257.03833,112.322928 Z M1348.80269,42 L1390.03619,42 L1390.03619,260.749193 L1348.80269,260.749193 L1348.80269,42 Z M1535.88218,112.322928 L1581,112.322928 L1487.47763,320 L1442.3598,320 L1479.11141,238.305705 L1416.36477,112.322928 L1462.37897,112.322928 L1500.92334,189.827772 L1535.88218,112.322928 Z" id="Churnly"></path>
            <path d="M418.925391,131.613766 C423.485276,142.695203 426.382409,156.043966 427.616789,171.660056 C428.283014,180.088435 427.945257,190.25852 427.616789,199.518345 C426.507338,230.79491 418.925391,258.717209 405.019154,290.057784 C391.697591,320.080676 363.558118,349.916274 333.749689,370.150365 C303.453574,390.715499 271.383188,401.462684 245.097428,404.973226 C207.392382,410.008847 175.137771,405.11978 147.753769,396.26751 C119.873283,387.254746 96.9776603,374.043109 71.2694649,352.738934 C54.5051549,338.846485 41.5350692,321.647852 31.2890334,303.986929 C18.3922835,281.757013 9.62875336,262.830618 5.2148389,239.564635 C2.47609814,225.128585 0,211.706347 0,192.553773 C4.28255921e-15,126.045885 46.9335501,14.9571815 175.566243,1.02803707 C307.290581,-13.2358899 356.347325,125.218961 359.823884,150.76634 L363.300443,178.624629 L398.066036,178.624629 C381.842093,236.66273 348.235353,278.450164 297.245817,303.986929 C241.620869,283.093212 208.014129,241.305779 196.425598,178.624629 L241.620869,178.624629 C223.079219,115.943479 189.47248,74.1560453 140.80065,53.2623287 C94.4465267,71.8345213 58.5220809,113.621955 33.027313,178.624629 L71.2694649,178.624629 C82.1370285,287.913968 138.92083,348.273594 241.620869,359.703506 C257.265386,361.444649 272.909902,359.703506 281.6013,357.962363 C290.292699,356.22122 294.528724,355.380609 304.198936,352.738934 C325.511879,346.916738 354.8176,326.987194 373.730121,303.986929 C388.752635,285.717454 394.275486,276.757655 405.019154,255.234923 C411.776352,241.698266 413.921183,232.212842 415.448832,223.894348 C417.065068,215.093475 417.888691,207.637267 418.925391,199.518345 C422.402983,172.283574 422.402983,149.648714 418.925391,131.613766 Z" id="Arrows-Copy"></path>
        </g>
    </g>
</svg>