<?xml version="1.0" encoding="UTF-8"?>
<svg width="899px" height="710px" viewBox="0 0 899 710" version="1.1" xmlns="http://www.w3.org/2000/svg" xmlns:xlink="http://www.w3.org/1999/xlink">
    <!-- Generator: Sketch 47.1 (45422) - http://www.bohemiancoding.com/sketch -->
    <title>Group</title>
    <desc>Created with Sketch.</desc>
    <defs></defs>
    <g id="Page-1" stroke="none" stroke-width="1" fill="none" fill-rule="evenodd">
        <g id="wpcw-block" transform="translate(-1100.000000, 0.000000)" fill="#000000">
            <g id="wpcw">
                <g>
                    <g id="Group" transform="translate(1100.000000, 0.000000)">
                        <g id="Blue-Gear" transform="translate(449.898525, 0.000000)">
                            <path d="M393.672103,104.984173 C393.672103,104.984173 348.635036,114.635763 327.446948,122.492793 L257.831204,40.6892072 L192.399487,77.8343093 L229.552014,177.927585 C211.957089,192.306131 195.698575,208.338782 181.145526,225.776427 L79.2107447,189.055955 L41.4090068,253.351156 L124.587187,321.828575 C116.604368,342.631332 110.653527,364.395609 106.912784,386.903427 L3.40637035e-06,405.263814 L3.40637035e-06,479.554025 L106.840574,497.984794 C110.653259,520.422253 116.604368,542.186397 124.587187,562.989234 L41.4090068,631.466737 L79.2107447,695.761624 L199.104277,649.962645 C210.20935,649.962645 448.871487,649.962655 448.871487,649.962655 L448.871487,0 L412.428744,0 L393.672103,104.984173 L393.672103,104.984173 L393.672103,104.984173 L393.672103,104.984173 Z M189.00505,636.947303 C192.760468,641.787758 198.992997,649.915464 198.992997,649.915464 C198.992997,649.915464 364.387251,649.915451 448.766268,649.915451 L448.766268,614.913728 L448.914884,614.913728 L448.914884,19.2137792 L424.082189,19.2137792 L408.234337,121.770889 C378.133894,125.421548 349.299765,133.085477 322.303375,144.201175 L255.26426,58.380712 L210.315047,83.7718441 L250.771036,184.788663 C227.548394,202.138482 206.756335,222.466828 188.984194,245.194604 L85.9223346,209.585187 L60.8346409,250.701664 L146.231511,317.80846 C134.927713,344.575084 127.195343,373.166581 123.618372,403.009121 L17.5563509,419.955231 L17.5563509,466.805136 L124.106194,482.971663 C127.870552,511.410869 135.413386,538.682825 146.223694,564.2854 L60.8346409,633.346545 L85.9223346,677.814965 L189.00505,636.947303 L189.00505,636.947303 L189.00505,636.947303 L189.00505,636.947303 Z" id="path4050" transform="translate(224.457444, 347.880812) scale(-1, 1) translate(-224.457444, -347.880812) "></path>
                        </g>
                        <g id="Green-Gear" transform="translate(225.398525, 348.000000) scale(-1, 1) translate(-225.398525, -348.000000) translate(0.898525, 0.000000)">
                            <path d="M393.672103,104.984173 C393.672103,104.984173 348.635036,114.635763 327.446948,122.492793 L257.831204,40.6892072 L192.399487,77.8343093 L229.552014,177.927585 C211.957089,192.306131 195.698575,208.338782 181.145526,225.776427 L79.2107447,189.055955 L41.4090068,253.351156 L124.587187,321.828575 C116.604368,342.631332 110.653527,364.395609 106.912784,386.903427 L3.4063703e-06,405.263814 L3.4063703e-06,479.554025 L106.840574,497.984794 C110.653259,520.422253 116.604368,542.186397 124.587187,562.989234 L41.4090068,631.466737 L79.2107447,695.761624 L199.104277,649.962645 C210.20935,649.962645 448.871487,649.962655 448.871487,649.962655 L448.871487,0 L412.428744,0 L393.672103,104.984173 L393.672103,104.984173 L393.672103,104.984173 L393.672103,104.984173 Z M189.00505,636.947303 C192.760468,641.787758 198.992997,649.915464 198.992997,649.915464 C198.992997,649.915464 364.387251,649.915451 448.766268,649.915451 L448.766268,614.913728 L448.914884,614.913728 L448.914884,19.2137792 L424.082189,19.2137792 L408.234337,121.770889 C378.133894,125.421548 349.299765,133.085477 322.303375,144.201175 L255.26426,58.380712 L210.315047,83.7718441 L250.771036,184.788663 C227.548394,202.138482 206.756335,222.466828 188.984194,245.194604 L85.9223346,209.585187 L60.8346409,250.701664 L146.231511,317.80846 C134.927713,344.575084 127.195343,373.166581 123.618372,403.009121 L17.5563509,419.955231 L17.5563509,466.805136 L124.106194,482.971663 C127.870552,511.410869 135.413386,538.682825 146.223694,564.2854 L60.8346409,633.346545 L85.9223346,677.814965 L189.00505,636.947303 L189.00505,636.947303 L189.00505,636.947303 L189.00505,636.947303 Z" id="path4050" transform="translate(224.457444, 347.880812) scale(-1, 1) translate(-224.457444, -347.880812) "></path>
                        </g>
                        <g id="Blue-Student" transform="translate(599.408301, 464.810346) rotate(62.000000) translate(-599.408301, -464.810346) translate(421.408301, 267.310346)">
                            <path d="M128.447519,308.199605 C116.93679,248.728496 122.871407,231.613569 113.118813,214.113016 C91.2222828,174.820763 -9.66338121e-13,150.556122 -9.66338121e-13,150.556122 C-9.66338121e-13,150.556122 92.5716405,167.135076 120.680895,150.556122 C171.111821,120.811753 160.442927,16.0350877 160.442927,16.0350877 C160.442927,16.0350877 173.323612,127.721506 202.804251,166.1804 C233.592333,206.344916 355.810078,235.519319 355.810078,235.519319 C355.810078,235.519319 217.928414,202.375634 177.905043,231.277266 C137.881672,260.178897 151.491712,394.913036 151.491712,394.913036 C151.491712,394.913036 139.958248,367.670714 128.447519,308.199605 L128.447519,308.199605 L128.447519,308.199605 L128.447519,308.199605 Z" id="Shape"></path>
                            <ellipse id="Oval" cx="110.707038" cy="116.542105" rx="28.9541483" ry="28.9596491"></ellipse>
                            <path d="M60.7710497,37.545048 L11.3234151,111.201464 L42.3109397,100.472422 L47.3785898,113.738986 L46.6610873,132.238687 L60.7710504,126.564297 L51.0658366,112.485292 L45.9291067,98.7723596 L59.2629348,89.6617007 L72.9780641,111.201461 C72.9780641,111.201461 76.5624283,95.9907312 90.4032527,87.0764091 C103.680728,78.5249177 117.458802,80.5141748 117.458802,80.5141748 C117.458802,80.5141748 116.576094,71.5644129 117.458802,63.5217991 C117.954952,59.0012234 120.825026,50.5446601 120.825026,50.5446601 L109.468507,46.6199786 L139.443219,0.191634627 L60.7710497,37.545048 L60.7710497,37.545048 L60.7710497,37.545048 L60.7710497,37.545048 Z" id="Path-2"></path>
                        </g>
                        <g id="Green-Student" transform="translate(425.104192, 426.799819) rotate(27.000000) translate(-425.104192, -426.799819) translate(247.104192, 229.299819)">
                            <path d="M128.447519,308.199605 C116.93679,248.728496 122.871407,231.613569 113.118813,214.113016 C91.2222828,174.820763 0,150.556122 0,150.556122 C0,150.556122 92.5716405,167.135076 120.680895,150.556122 C171.111821,120.811753 160.442927,16.0350877 160.442927,16.0350877 C160.442927,16.0350877 173.323612,127.721506 202.804251,166.1804 C233.592333,206.344916 355.810078,235.519319 355.810078,235.519319 C355.810078,235.519319 217.928414,202.375634 177.905043,231.277266 C137.881672,260.178897 151.491712,394.913036 151.491712,394.913036 C151.491712,394.913036 139.958248,367.670714 128.447519,308.199605 L128.447519,308.199605 L128.447519,308.199605 L128.447519,308.199605 Z" id="Blue-Student"></path>
                            <ellipse id="Oval" cx="110.707038" cy="116.542105" rx="28.9541483" ry="28.9596491"></ellipse>
                            <path d="M60.7710497,37.545048 L11.3234151,111.201464 L42.3109397,100.472422 L47.3785898,113.738986 L46.6610873,132.238687 L60.7710504,126.564297 L51.0658366,112.485292 L45.9291067,98.7723596 L59.2629348,89.6617007 L72.9780641,111.201461 C72.9780641,111.201461 76.5624283,95.9907312 90.4032527,87.0764091 C103.680728,78.5249177 117.458802,80.5141748 117.458802,80.5141748 C117.458802,80.5141748 116.576094,71.5644129 117.458802,63.5217991 C117.954952,59.0012234 120.825026,50.5446601 120.825026,50.5446601 L109.468507,46.6199786 L139.443219,0.191634627 L60.7710497,37.545048 L60.7710497,37.545048 L60.7710497,37.545048 L60.7710497,37.545048 Z" id="Path-2"></path>
                        </g>
                        <g id="Blue-Student" transform="translate(102.448746, 314.445614)">
                            <path d="M113.118813,214.113016 C91.2222828,174.820763 0,150.556122 0,150.556122 C0,150.556122 92.5716405,167.135076 120.680895,150.556122 C171.111821,120.811753 160.442927,16.0350877 160.442927,16.0350877 C160.442927,16.0350877 173.323612,127.721506 202.804251,166.1804 C233.592333,206.344916 355.810078,235.519319 355.810078,235.519319 C355.810078,235.519319 217.928414,202.375634 177.905043,231.277266 C137.881672,260.178897 151.491712,394.913036 151.491712,394.913036 C151.491712,394.913036 139.958248,367.670714 128.447519,308.199605 C116.93679,248.728496 122.871407,231.613569 113.118813,214.113016 L113.118813,214.113016 L113.118813,214.113016 Z" id="Shape"></path>
                            <ellipse id="Oval" cx="110.707038" cy="116.542105" rx="28.9541483" ry="28.9596491"></ellipse>
                            <path d="M60.7710497,37.545048 L11.3234151,111.201464 L42.3109397,100.472422 L47.3785898,113.738986 L46.6610873,132.238687 L60.7710504,126.564297 L51.0658366,112.485292 L45.9291067,98.7723596 L59.2629348,89.6617007 L72.9780641,111.201461 C72.9780641,111.201461 76.5624283,95.9907312 90.4032527,87.0764091 C103.680728,78.5249177 117.458802,80.5141748 117.458802,80.5141748 C117.458802,80.5141748 116.576094,71.5644129 117.458802,63.5217991 C117.954952,59.0012234 120.825026,50.5446601 120.825026,50.5446601 L109.468507,46.6199786 L139.443219,0.191634627 L60.7710497,37.545048 L60.7710497,37.545048 L60.7710497,37.545048 L60.7710497,37.545048 Z" id="Path-2"></path>
                        </g>
                    </g>
                </g>
            </g>
        </g>
    </g>
</svg>